%TF.GenerationSoftware,KiCad,Pcbnew,9.0.7*%
%TF.CreationDate,2026-01-11T22:14:01+00:00*%
%TF.ProjectId,ChillerHub,4368696c-6c65-4724-9875-622e6b696361,rev?*%
%TF.SameCoordinates,Original*%
%TF.FileFunction,Copper,L2,Bot*%
%TF.FilePolarity,Positive*%
%FSLAX46Y46*%
G04 Gerber Fmt 4.6, Leading zero omitted, Abs format (unit mm)*
G04 Created by KiCad (PCBNEW 9.0.7) date 2026-01-11 22:14:01*
%MOMM*%
%LPD*%
G01*
G04 APERTURE LIST*
G04 Aperture macros list*
%AMRoundRect*
0 Rectangle with rounded corners*
0 $1 Rounding radius*
0 $2 $3 $4 $5 $6 $7 $8 $9 X,Y pos of 4 corners*
0 Add a 4 corners polygon primitive as box body*
4,1,4,$2,$3,$4,$5,$6,$7,$8,$9,$2,$3,0*
0 Add four circle primitives for the rounded corners*
1,1,$1+$1,$2,$3*
1,1,$1+$1,$4,$5*
1,1,$1+$1,$6,$7*
1,1,$1+$1,$8,$9*
0 Add four rect primitives between the rounded corners*
20,1,$1+$1,$2,$3,$4,$5,0*
20,1,$1+$1,$4,$5,$6,$7,0*
20,1,$1+$1,$6,$7,$8,$9,0*
20,1,$1+$1,$8,$9,$2,$3,0*%
G04 Aperture macros list end*
%TA.AperFunction,ComponentPad*%
%ADD10RoundRect,0.249999X-0.850001X0.850001X-0.850001X-0.850001X0.850001X-0.850001X0.850001X0.850001X0*%
%TD*%
%TA.AperFunction,ComponentPad*%
%ADD11C,2.200000*%
%TD*%
%TA.AperFunction,ComponentPad*%
%ADD12RoundRect,0.249999X0.850001X-0.850001X0.850001X0.850001X-0.850001X0.850001X-0.850001X-0.850001X0*%
%TD*%
%TA.AperFunction,ComponentPad*%
%ADD13C,1.600000*%
%TD*%
%TA.AperFunction,ComponentPad*%
%ADD14RoundRect,0.250000X-1.050000X1.050000X-1.050000X-1.050000X1.050000X-1.050000X1.050000X1.050000X0*%
%TD*%
%TA.AperFunction,ComponentPad*%
%ADD15C,2.600000*%
%TD*%
%TA.AperFunction,ViaPad*%
%ADD16C,0.800000*%
%TD*%
%TA.AperFunction,Conductor*%
%ADD17C,0.250000*%
%TD*%
G04 APERTURE END LIST*
D10*
%TO.P,J2_GE1,1,Pin_1*%
%TO.N,/GE_+5V_REF*%
X75500000Y-113920000D03*
D11*
%TO.P,J2_GE1,2,Pin_2*%
%TO.N,/GE_SP*%
X75500000Y-116460000D03*
%TO.P,J2_GE1,3,Pin_3*%
%TO.N,GND*%
X75500000Y-119000000D03*
%TO.P,J2_GE1,4,Pin_4*%
%TO.N,/GE_RUN*%
X75500000Y-121540000D03*
%TO.P,J2_GE1,5,Pin_5*%
%TO.N,/GE_DIR*%
X75500000Y-124080000D03*
%TO.P,J2_GE1,6,Pin_6*%
%TO.N,/GE_FG*%
X75500000Y-126620000D03*
%TD*%
D12*
%TO.P,J3_ESP1,1,Pin_1*%
%TO.N,/+5V*%
X166370000Y-101600000D03*
D11*
%TO.P,J3_ESP1,2,Pin_2*%
%TO.N,GND*%
X166370000Y-99060000D03*
%TO.P,J3_ESP1,3,Pin_3*%
%TO.N,/+3V3*%
X166370000Y-96520000D03*
%TO.P,J3_ESP1,4,Pin_4*%
%TO.N,/ESP_RUN_GPIO*%
X166370000Y-93980000D03*
%TO.P,J3_ESP1,5,Pin_5*%
%TO.N,/ESP_DIR_GPIO*%
X166370000Y-91440000D03*
%TO.P,J3_ESP1,6,Pin_6*%
%TO.N,/ESP_FG_IN*%
X166370000Y-88900000D03*
%TO.P,J3_ESP1,7,Pin_7*%
%TO.N,/ESP_SDA*%
X166370000Y-86360000D03*
%TO.P,J3_ESP1,8,Pin_8*%
%TO.N,/ESP_SCL*%
X166370000Y-83820000D03*
%TO.P,J3_ESP1,9,Pin_9*%
%TO.N,/ESP_ OW_GPIO*%
X166370000Y-81280000D03*
%TO.P,J3_ESP1,10,Pin_10*%
%TO.N,/ESP_SPARE*%
X166370000Y-78740000D03*
%TD*%
D12*
%TO.P,J4_SHT1,1,Pin_1*%
%TO.N,/+3V3*%
X166370000Y-118110000D03*
D11*
%TO.P,J4_SHT1,2,Pin_2*%
%TO.N,GND*%
X166370000Y-115570000D03*
%TO.P,J4_SHT1,3,Pin_3*%
%TO.N,/ESP_SDA*%
X166370000Y-113030000D03*
%TO.P,J4_SHT1,4,Pin_4*%
%TO.N,/ESP_SCL*%
X166370000Y-110490000D03*
%TD*%
D12*
%TO.P,J5_DS18B1,1,Pin_1*%
%TO.N,/+3V3*%
X166370000Y-129540000D03*
D11*
%TO.P,J5_DS18B1,2,Pin_2*%
%TO.N,/ESP_ OW_GPIO*%
X166370000Y-127000000D03*
%TO.P,J5_DS18B1,3,Pin_3*%
%TO.N,GND*%
X166370000Y-124460000D03*
%TD*%
%TO.P,U2_LM1,2,Pin_2*%
%TO.N,GND*%
X153670000Y-100330000D03*
D10*
%TO.P,U2_LM1,1,Pin_1*%
%TO.N,/+5V*%
X153670000Y-97790000D03*
%TD*%
D12*
%TO.P,U1_LM1,1,Pin_1*%
%TO.N,/+24V*%
X77470000Y-99060000D03*
D11*
%TO.P,U1_LM1,2,Pin_2*%
%TO.N,GND*%
X77470000Y-96520000D03*
%TD*%
D13*
%TO.P,R9,1*%
%TO.N,/ESP_ OW_GPIO*%
X157480000Y-123190000D03*
%TO.P,R9,2*%
%TO.N,/+3V3*%
X157480000Y-130810000D03*
%TD*%
%TO.P,R1,1*%
%TO.N,Net-(Q1_RUN1-G)*%
X97790000Y-102870000D03*
%TO.P,R1,2*%
%TO.N,/ESP_RUN_GPIO*%
X105410000Y-102870000D03*
%TD*%
%TO.P,R6,1*%
%TO.N,/GE_FG*%
X82690000Y-133500000D03*
%TO.P,R6,2*%
%TO.N,/FG_TOP*%
X90310000Y-133500000D03*
%TD*%
%TO.P,R7,1*%
%TO.N,/FG_TOP*%
X95190000Y-133500000D03*
%TO.P,R7,2*%
%TO.N,/ESP_FG_IN*%
X102810000Y-133500000D03*
%TD*%
%TO.P,R2,1*%
%TO.N,Net-(Q2_DIR1-G)*%
X90190000Y-119500000D03*
%TO.P,R2,2*%
%TO.N,/ESP_DIR_GPIO*%
X97810000Y-119500000D03*
%TD*%
%TO.P,R3,1*%
%TO.N,/GE_RUN*%
X88900000Y-113000000D03*
%TO.P,R3,2*%
%TO.N,/GE_+5V_REF*%
X81280000Y-113000000D03*
%TD*%
%TO.P,R8,1*%
%TO.N,/ESP_FG_IN*%
X102810000Y-128000000D03*
%TO.P,R8,2*%
%TO.N,GND*%
X95190000Y-128000000D03*
%TD*%
D14*
%TO.P,J1_24VDC1,1,Pin_1*%
%TO.N,/+24V*%
X78740000Y-81280000D03*
D15*
%TO.P,J1_24VDC1,2,Pin_2*%
%TO.N,GND*%
X78740000Y-86360000D03*
%TD*%
D13*
%TO.P,R4,1*%
%TO.N,Net-(Q1_RUN1-S)*%
X83573408Y-108375094D03*
%TO.P,R4,2*%
%TO.N,GND*%
X75953408Y-108375094D03*
%TD*%
%TO.P,R5,1*%
%TO.N,Net-(Q2_DIR1-S)*%
X82880000Y-128000000D03*
%TO.P,R5,2*%
%TO.N,GND*%
X90500000Y-128000000D03*
%TD*%
D16*
%TO.N,GND*%
X158750000Y-90170000D03*
X157480000Y-90170000D03*
X168910000Y-100330000D03*
X168910000Y-99060000D03*
X162560000Y-115570000D03*
X162560000Y-114300000D03*
X171450000Y-124460000D03*
X171450000Y-123190000D03*
X157480000Y-101600000D03*
X157480000Y-100330000D03*
X157480000Y-99060000D03*
X82550000Y-87630000D03*
X82550000Y-86360000D03*
X82550000Y-85090000D03*
X69850000Y-119380000D03*
X69850000Y-118110000D03*
%TD*%
D17*
%TO.N,/ESP_DIR_GPIO*%
X97810000Y-125806203D02*
X97810000Y-119500000D01*
X102813797Y-130810000D02*
X97810000Y-125806203D01*
X162560000Y-104140000D02*
X135890000Y-130810000D01*
X135890000Y-130810000D02*
X102813797Y-130810000D01*
X162560000Y-95250000D02*
X162560000Y-104140000D01*
X166370000Y-91440000D02*
X162560000Y-95250000D01*
%TO.N,/ESP_FG_IN*%
X141910000Y-88900000D02*
X102810000Y-128000000D01*
X166370000Y-88900000D02*
X141910000Y-88900000D01*
%TO.N,/ESP_SDA*%
X161290000Y-110490000D02*
X163830000Y-113030000D01*
X161290000Y-109220000D02*
X161290000Y-110490000D01*
X163830000Y-106680000D02*
X161290000Y-109220000D01*
X167640000Y-106680000D02*
X163830000Y-106680000D01*
X163830000Y-113030000D02*
X166370000Y-113030000D01*
X171450000Y-102870000D02*
X167640000Y-106680000D01*
X171450000Y-91440000D02*
X171450000Y-102870000D01*
X166370000Y-86360000D02*
X171450000Y-91440000D01*
%TO.N,/ESP_SCL*%
X172720000Y-104140000D02*
X166370000Y-110490000D01*
X171450000Y-83820000D02*
X172720000Y-85090000D01*
X172720000Y-85090000D02*
X172720000Y-104140000D01*
X166370000Y-83820000D02*
X171450000Y-83820000D01*
%TO.N,/GE_FG*%
X82380000Y-133500000D02*
X82690000Y-133500000D01*
%TO.N,/ESP_FG_IN*%
X102810000Y-128000000D02*
X102690000Y-128000000D01*
%TD*%
%TA.AperFunction,Conductor*%
%TO.N,GND*%
G36*
X164883477Y-89545185D02*
G01*
X164926923Y-89593205D01*
X165001132Y-89738848D01*
X165149201Y-89942649D01*
X165149205Y-89942654D01*
X165288870Y-90082319D01*
X165322355Y-90143642D01*
X165317371Y-90213334D01*
X165288870Y-90257681D01*
X165149205Y-90397345D01*
X165149201Y-90397350D01*
X165001132Y-90601151D01*
X164886760Y-90825616D01*
X164808910Y-91065214D01*
X164769500Y-91314038D01*
X164769500Y-91565961D01*
X164808910Y-91814786D01*
X164859419Y-91970239D01*
X164861414Y-92040081D01*
X164829169Y-92096238D01*
X162161269Y-94764140D01*
X162074144Y-94851264D01*
X162074138Y-94851272D01*
X162005690Y-94953708D01*
X162005688Y-94953713D01*
X161977132Y-95022655D01*
X161977132Y-95022656D01*
X161958538Y-95067545D01*
X161958535Y-95067555D01*
X161934500Y-95188389D01*
X161934500Y-103829547D01*
X161914815Y-103896586D01*
X161898181Y-103917228D01*
X135667229Y-130148181D01*
X135605906Y-130181666D01*
X135579548Y-130184500D01*
X103124250Y-130184500D01*
X103057211Y-130164815D01*
X103036569Y-130148181D01*
X102354300Y-129465912D01*
X102320815Y-129404589D01*
X102325799Y-129334897D01*
X102367671Y-129278964D01*
X102433135Y-129254547D01*
X102480299Y-129260299D01*
X102505466Y-129268477D01*
X102707648Y-129300500D01*
X102707649Y-129300500D01*
X102912351Y-129300500D01*
X102912352Y-129300500D01*
X103114534Y-129268477D01*
X103309219Y-129205220D01*
X103491610Y-129112287D01*
X103605273Y-129029707D01*
X103657213Y-128991971D01*
X103657215Y-128991968D01*
X103657219Y-128991966D01*
X103801966Y-128847219D01*
X103801968Y-128847215D01*
X103801971Y-128847213D01*
X103857879Y-128770261D01*
X103922287Y-128681610D01*
X104015220Y-128499219D01*
X104078477Y-128304534D01*
X104110500Y-128102352D01*
X104110500Y-127897648D01*
X104090240Y-127769735D01*
X104077715Y-127690654D01*
X104079777Y-127690327D01*
X104082784Y-127629304D01*
X104112215Y-127582373D01*
X119777817Y-111916772D01*
X142597158Y-111916772D01*
X142597158Y-112159349D01*
X142628819Y-112399846D01*
X142691605Y-112634165D01*
X142716997Y-112695466D01*
X142784434Y-112858273D01*
X142905722Y-113068350D01*
X142905724Y-113068353D01*
X142905725Y-113068354D01*
X143053391Y-113260797D01*
X143053397Y-113260804D01*
X143224914Y-113432321D01*
X143224920Y-113432326D01*
X143417369Y-113579997D01*
X143627446Y-113701285D01*
X143851558Y-113794115D01*
X144085869Y-113856899D01*
X144266244Y-113880645D01*
X144326369Y-113888561D01*
X144326370Y-113888561D01*
X144568947Y-113888561D01*
X144617046Y-113882228D01*
X144809447Y-113856899D01*
X145043758Y-113794115D01*
X145267870Y-113701285D01*
X145477947Y-113579997D01*
X145670396Y-113432326D01*
X145841923Y-113260799D01*
X145989594Y-113068350D01*
X146110882Y-112858273D01*
X146203712Y-112634161D01*
X146266496Y-112399850D01*
X146298158Y-112159349D01*
X146298158Y-111916773D01*
X146266496Y-111676272D01*
X146203712Y-111441961D01*
X146110882Y-111217849D01*
X145989594Y-111007772D01*
X145898252Y-110888733D01*
X145841924Y-110815324D01*
X145841918Y-110815317D01*
X145670401Y-110643800D01*
X145670394Y-110643794D01*
X145477951Y-110496128D01*
X145477950Y-110496127D01*
X145477947Y-110496125D01*
X145267870Y-110374837D01*
X145241799Y-110364038D01*
X145043762Y-110282008D01*
X144809443Y-110219222D01*
X144568947Y-110187561D01*
X144568946Y-110187561D01*
X144326370Y-110187561D01*
X144326369Y-110187561D01*
X144085872Y-110219222D01*
X143851553Y-110282008D01*
X143627452Y-110374834D01*
X143627443Y-110374838D01*
X143417364Y-110496128D01*
X143224921Y-110643794D01*
X143224914Y-110643800D01*
X143053397Y-110815317D01*
X143053391Y-110815324D01*
X142905725Y-111007767D01*
X142784435Y-111217846D01*
X142784431Y-111217855D01*
X142691605Y-111441956D01*
X142628819Y-111676275D01*
X142597158Y-111916772D01*
X119777817Y-111916772D01*
X133983437Y-97711153D01*
X150329500Y-97711153D01*
X150329500Y-97868846D01*
X150360261Y-98023489D01*
X150360264Y-98023501D01*
X150420602Y-98169172D01*
X150420609Y-98169185D01*
X150508210Y-98300288D01*
X150508213Y-98300292D01*
X150619707Y-98411786D01*
X150619711Y-98411789D01*
X150750814Y-98499390D01*
X150750827Y-98499397D01*
X150872288Y-98549707D01*
X150896503Y-98559737D01*
X151051153Y-98590499D01*
X151051156Y-98590500D01*
X151051158Y-98590500D01*
X151208844Y-98590500D01*
X151208845Y-98590499D01*
X151363497Y-98559737D01*
X151509179Y-98499394D01*
X151640289Y-98411789D01*
X151751789Y-98300289D01*
X151839394Y-98169179D01*
X151842398Y-98164684D01*
X151896010Y-98119879D01*
X151965335Y-98111172D01*
X152028363Y-98141326D01*
X152065082Y-98200770D01*
X152069500Y-98233575D01*
X152069500Y-98690017D01*
X152080000Y-98792796D01*
X152135185Y-98959332D01*
X152135187Y-98959337D01*
X152227289Y-99108657D01*
X152356451Y-99237819D01*
X152354117Y-99240152D01*
X152386065Y-99285195D01*
X152389257Y-99354992D01*
X152369126Y-99398415D01*
X152301559Y-99491413D01*
X152187219Y-99715815D01*
X152109397Y-99955329D01*
X152104008Y-99989353D01*
X152074077Y-100052487D01*
X152014765Y-100089417D01*
X151944902Y-100088418D01*
X151886671Y-100049807D01*
X151866974Y-100017405D01*
X151839397Y-99950827D01*
X151839390Y-99950814D01*
X151751789Y-99819711D01*
X151751786Y-99819707D01*
X151640292Y-99708213D01*
X151640288Y-99708210D01*
X151509185Y-99620609D01*
X151509172Y-99620602D01*
X151363501Y-99560264D01*
X151363489Y-99560261D01*
X151208845Y-99529500D01*
X151208842Y-99529500D01*
X151051158Y-99529500D01*
X151051155Y-99529500D01*
X150896510Y-99560261D01*
X150896498Y-99560264D01*
X150750827Y-99620602D01*
X150750814Y-99620609D01*
X150619711Y-99708210D01*
X150619707Y-99708213D01*
X150508213Y-99819707D01*
X150508210Y-99819711D01*
X150420609Y-99950814D01*
X150420602Y-99950827D01*
X150360264Y-100096498D01*
X150360261Y-100096510D01*
X150329500Y-100251153D01*
X150329500Y-100408846D01*
X150360261Y-100563489D01*
X150360264Y-100563501D01*
X150420602Y-100709172D01*
X150420609Y-100709185D01*
X150508210Y-100840288D01*
X150508213Y-100840292D01*
X150619707Y-100951786D01*
X150619711Y-100951789D01*
X150750814Y-101039390D01*
X150750827Y-101039397D01*
X150896498Y-101099735D01*
X150896503Y-101099737D01*
X151051153Y-101130499D01*
X151051156Y-101130500D01*
X151051158Y-101130500D01*
X151208844Y-101130500D01*
X151208845Y-101130499D01*
X151363497Y-101099737D01*
X151509179Y-101039394D01*
X151640289Y-100951789D01*
X151751789Y-100840289D01*
X151839394Y-100709179D01*
X151866974Y-100642592D01*
X151910814Y-100588191D01*
X151977108Y-100566125D01*
X152044807Y-100583403D01*
X152092418Y-100634540D01*
X152104008Y-100670646D01*
X152109397Y-100704670D01*
X152187219Y-100944184D01*
X152301557Y-101168583D01*
X152375748Y-101270697D01*
X152375748Y-101270698D01*
X153146212Y-100500233D01*
X153157482Y-100542292D01*
X153229890Y-100667708D01*
X153332292Y-100770110D01*
X153457708Y-100842518D01*
X153499765Y-100853787D01*
X152729300Y-101624250D01*
X152831416Y-101698442D01*
X153055815Y-101812780D01*
X153295330Y-101890602D01*
X153544072Y-101930000D01*
X153795928Y-101930000D01*
X154044669Y-101890602D01*
X154284184Y-101812780D01*
X154508575Y-101698446D01*
X154508581Y-101698442D01*
X154610697Y-101624250D01*
X154610698Y-101624250D01*
X153840234Y-100853787D01*
X153882292Y-100842518D01*
X154007708Y-100770110D01*
X154110110Y-100667708D01*
X154182518Y-100542292D01*
X154193787Y-100500234D01*
X154964250Y-101270698D01*
X154964250Y-101270697D01*
X155038442Y-101168581D01*
X155038446Y-101168575D01*
X155152780Y-100944184D01*
X155230602Y-100704669D01*
X155270000Y-100455928D01*
X155270000Y-100204071D01*
X155230602Y-99955330D01*
X155152780Y-99715815D01*
X155038442Y-99491416D01*
X154970873Y-99398416D01*
X154947393Y-99332610D01*
X154963218Y-99264556D01*
X154985082Y-99239352D01*
X154983549Y-99237819D01*
X155043772Y-99177596D01*
X155112712Y-99108656D01*
X155204814Y-98959335D01*
X155259999Y-98792798D01*
X155270500Y-98690010D01*
X155270500Y-96889990D01*
X155259999Y-96787202D01*
X155204814Y-96620665D01*
X155112712Y-96471344D01*
X154988656Y-96347288D01*
X154885846Y-96283874D01*
X154839337Y-96255187D01*
X154839332Y-96255185D01*
X154837863Y-96254698D01*
X154672798Y-96200001D01*
X154672796Y-96200000D01*
X154570017Y-96189500D01*
X154570010Y-96189500D01*
X152769990Y-96189500D01*
X152769982Y-96189500D01*
X152667203Y-96200000D01*
X152667202Y-96200001D01*
X152620559Y-96215457D01*
X152500667Y-96255185D01*
X152500662Y-96255187D01*
X152351342Y-96347289D01*
X152227289Y-96471342D01*
X152135187Y-96620662D01*
X152135185Y-96620667D01*
X152126803Y-96645962D01*
X152080001Y-96787202D01*
X152080001Y-96787203D01*
X152080000Y-96787203D01*
X152069500Y-96889982D01*
X152069500Y-97346424D01*
X152049815Y-97413463D01*
X151997011Y-97459218D01*
X151927853Y-97469162D01*
X151864297Y-97440137D01*
X151842398Y-97415315D01*
X151751789Y-97279711D01*
X151751786Y-97279707D01*
X151640292Y-97168213D01*
X151640288Y-97168210D01*
X151509185Y-97080609D01*
X151509172Y-97080602D01*
X151363501Y-97020264D01*
X151363489Y-97020261D01*
X151208845Y-96989500D01*
X151208842Y-96989500D01*
X151051158Y-96989500D01*
X151051155Y-96989500D01*
X150896510Y-97020261D01*
X150896498Y-97020264D01*
X150750827Y-97080602D01*
X150750814Y-97080609D01*
X150619711Y-97168210D01*
X150619707Y-97168213D01*
X150508213Y-97279707D01*
X150508210Y-97279711D01*
X150420609Y-97410814D01*
X150420602Y-97410827D01*
X150360264Y-97556498D01*
X150360261Y-97556510D01*
X150329500Y-97711153D01*
X133983437Y-97711153D01*
X142132771Y-89561819D01*
X142194094Y-89528334D01*
X142220452Y-89525500D01*
X164816438Y-89525500D01*
X164883477Y-89545185D01*
G37*
%TD.AperFunction*%
%TA.AperFunction,Conductor*%
G36*
X179402539Y-71260185D02*
G01*
X179448294Y-71312989D01*
X179459500Y-71364500D01*
X179459500Y-137415500D01*
X179439815Y-137482539D01*
X179387011Y-137528294D01*
X179335500Y-137539500D01*
X68124500Y-137539500D01*
X68057461Y-137519815D01*
X68011706Y-137467011D01*
X68000500Y-137415500D01*
X68000500Y-133878711D01*
X69649500Y-133878711D01*
X69649500Y-134121288D01*
X69681161Y-134361785D01*
X69743947Y-134596104D01*
X69828611Y-134800500D01*
X69836776Y-134820212D01*
X69958064Y-135030289D01*
X69958066Y-135030292D01*
X69958067Y-135030293D01*
X70105733Y-135222736D01*
X70105739Y-135222743D01*
X70277256Y-135394260D01*
X70277262Y-135394265D01*
X70469711Y-135541936D01*
X70679788Y-135663224D01*
X70903900Y-135756054D01*
X71138211Y-135818838D01*
X71318586Y-135842584D01*
X71378711Y-135850500D01*
X71378712Y-135850500D01*
X71621289Y-135850500D01*
X71669388Y-135844167D01*
X71861789Y-135818838D01*
X72096100Y-135756054D01*
X72320212Y-135663224D01*
X72530289Y-135541936D01*
X72722738Y-135394265D01*
X72894265Y-135222738D01*
X73041936Y-135030289D01*
X73163224Y-134820212D01*
X73256054Y-134596100D01*
X73318838Y-134361789D01*
X73350500Y-134121288D01*
X73350500Y-133878712D01*
X73340734Y-133804534D01*
X73318838Y-133638212D01*
X73309229Y-133602352D01*
X73261673Y-133424869D01*
X73261673Y-133424868D01*
X73259161Y-133415496D01*
X73256054Y-133403900D01*
X73253464Y-133397648D01*
X81389500Y-133397648D01*
X81389500Y-133602351D01*
X81421522Y-133804534D01*
X81484781Y-133999223D01*
X81577715Y-134181613D01*
X81698028Y-134347213D01*
X81842786Y-134491971D01*
X81986110Y-134596100D01*
X82008390Y-134612287D01*
X82124607Y-134671503D01*
X82190776Y-134705218D01*
X82190778Y-134705218D01*
X82190781Y-134705220D01*
X82295137Y-134739127D01*
X82385465Y-134768477D01*
X82486557Y-134784488D01*
X82587648Y-134800500D01*
X82587649Y-134800500D01*
X82792351Y-134800500D01*
X82792352Y-134800500D01*
X82994534Y-134768477D01*
X83189219Y-134705220D01*
X83371610Y-134612287D01*
X83464590Y-134544732D01*
X83537213Y-134491971D01*
X83537215Y-134491968D01*
X83537219Y-134491966D01*
X83681966Y-134347219D01*
X83681968Y-134347215D01*
X83681971Y-134347213D01*
X83734732Y-134274590D01*
X83802287Y-134181610D01*
X83895220Y-133999219D01*
X83958477Y-133804534D01*
X83990500Y-133602352D01*
X83990500Y-133397648D01*
X89009500Y-133397648D01*
X89009500Y-133602351D01*
X89041522Y-133804534D01*
X89104781Y-133999223D01*
X89197715Y-134181613D01*
X89318028Y-134347213D01*
X89462786Y-134491971D01*
X89606110Y-134596100D01*
X89628390Y-134612287D01*
X89744607Y-134671503D01*
X89810776Y-134705218D01*
X89810778Y-134705218D01*
X89810781Y-134705220D01*
X89915137Y-134739127D01*
X90005465Y-134768477D01*
X90106557Y-134784488D01*
X90207648Y-134800500D01*
X90207649Y-134800500D01*
X90412351Y-134800500D01*
X90412352Y-134800500D01*
X90614534Y-134768477D01*
X90809219Y-134705220D01*
X90991610Y-134612287D01*
X91084590Y-134544732D01*
X91157213Y-134491971D01*
X91157215Y-134491968D01*
X91157219Y-134491966D01*
X91301966Y-134347219D01*
X91301968Y-134347215D01*
X91301971Y-134347213D01*
X91354732Y-134274590D01*
X91422287Y-134181610D01*
X91515220Y-133999219D01*
X91578477Y-133804534D01*
X91610500Y-133602352D01*
X91610500Y-133397648D01*
X93889500Y-133397648D01*
X93889500Y-133602351D01*
X93921522Y-133804534D01*
X93984781Y-133999223D01*
X94077715Y-134181613D01*
X94198028Y-134347213D01*
X94342786Y-134491971D01*
X94486110Y-134596100D01*
X94508390Y-134612287D01*
X94624607Y-134671503D01*
X94690776Y-134705218D01*
X94690778Y-134705218D01*
X94690781Y-134705220D01*
X94795137Y-134739127D01*
X94885465Y-134768477D01*
X94986557Y-134784488D01*
X95087648Y-134800500D01*
X95087649Y-134800500D01*
X95292351Y-134800500D01*
X95292352Y-134800500D01*
X95494534Y-134768477D01*
X95689219Y-134705220D01*
X95871610Y-134612287D01*
X95964590Y-134544732D01*
X96037213Y-134491971D01*
X96037215Y-134491968D01*
X96037219Y-134491966D01*
X96181966Y-134347219D01*
X96181968Y-134347215D01*
X96181971Y-134347213D01*
X96234732Y-134274590D01*
X96302287Y-134181610D01*
X96395220Y-133999219D01*
X96458477Y-133804534D01*
X96490500Y-133602352D01*
X96490500Y-133397648D01*
X101509500Y-133397648D01*
X101509500Y-133602351D01*
X101541522Y-133804534D01*
X101604781Y-133999223D01*
X101697715Y-134181613D01*
X101818028Y-134347213D01*
X101962786Y-134491971D01*
X102106110Y-134596100D01*
X102128390Y-134612287D01*
X102244607Y-134671503D01*
X102310776Y-134705218D01*
X102310778Y-134705218D01*
X102310781Y-134705220D01*
X102415137Y-134739127D01*
X102505465Y-134768477D01*
X102606557Y-134784488D01*
X102707648Y-134800500D01*
X102707649Y-134800500D01*
X102912351Y-134800500D01*
X102912352Y-134800500D01*
X103114534Y-134768477D01*
X103309219Y-134705220D01*
X103491610Y-134612287D01*
X103584590Y-134544732D01*
X103657213Y-134491971D01*
X103657215Y-134491968D01*
X103657219Y-134491966D01*
X103801966Y-134347219D01*
X103801968Y-134347215D01*
X103801971Y-134347213D01*
X103854732Y-134274590D01*
X103922287Y-134181610D01*
X104015220Y-133999219D01*
X104054375Y-133878712D01*
X104054375Y-133878711D01*
X173409500Y-133878711D01*
X173409500Y-134121288D01*
X173441161Y-134361785D01*
X173503947Y-134596104D01*
X173588611Y-134800500D01*
X173596776Y-134820212D01*
X173718064Y-135030289D01*
X173718066Y-135030292D01*
X173718067Y-135030293D01*
X173865733Y-135222736D01*
X173865739Y-135222743D01*
X174037256Y-135394260D01*
X174037262Y-135394265D01*
X174229711Y-135541936D01*
X174439788Y-135663224D01*
X174663900Y-135756054D01*
X174898211Y-135818838D01*
X175078586Y-135842584D01*
X175138711Y-135850500D01*
X175138712Y-135850500D01*
X175381289Y-135850500D01*
X175429388Y-135844167D01*
X175621789Y-135818838D01*
X175856100Y-135756054D01*
X176080212Y-135663224D01*
X176290289Y-135541936D01*
X176482738Y-135394265D01*
X176654265Y-135222738D01*
X176801936Y-135030289D01*
X176923224Y-134820212D01*
X177016054Y-134596100D01*
X177078838Y-134361789D01*
X177110500Y-134121288D01*
X177110500Y-133878712D01*
X177078838Y-133638211D01*
X177016054Y-133403900D01*
X176923224Y-133179788D01*
X176801936Y-132969711D01*
X176685824Y-132818390D01*
X176654266Y-132777263D01*
X176654260Y-132777256D01*
X176482743Y-132605739D01*
X176482736Y-132605733D01*
X176290293Y-132458067D01*
X176290292Y-132458066D01*
X176290289Y-132458064D01*
X176080212Y-132336776D01*
X176080205Y-132336773D01*
X175856104Y-132243947D01*
X175621785Y-132181161D01*
X175381289Y-132149500D01*
X175381288Y-132149500D01*
X175138712Y-132149500D01*
X175138711Y-132149500D01*
X174898214Y-132181161D01*
X174663895Y-132243947D01*
X174439794Y-132336773D01*
X174439785Y-132336777D01*
X174229706Y-132458067D01*
X174037263Y-132605733D01*
X174037256Y-132605739D01*
X173865739Y-132777256D01*
X173865733Y-132777263D01*
X173718067Y-132969706D01*
X173596777Y-133179785D01*
X173596773Y-133179794D01*
X173503947Y-133403895D01*
X173441161Y-133638214D01*
X173409500Y-133878711D01*
X104054375Y-133878711D01*
X104068145Y-133836334D01*
X104068145Y-133836333D01*
X104078476Y-133804538D01*
X104078476Y-133804537D01*
X104078477Y-133804534D01*
X104110500Y-133602352D01*
X104110500Y-133397648D01*
X104078477Y-133195466D01*
X104015220Y-133000781D01*
X104015218Y-133000778D01*
X104015218Y-133000776D01*
X103981503Y-132934607D01*
X103922287Y-132818390D01*
X103892402Y-132777256D01*
X103801971Y-132652786D01*
X103657213Y-132508028D01*
X103491613Y-132387715D01*
X103491612Y-132387714D01*
X103491610Y-132387713D01*
X103391635Y-132336773D01*
X103309223Y-132294781D01*
X103114534Y-132231522D01*
X102939995Y-132203878D01*
X102912352Y-132199500D01*
X102707648Y-132199500D01*
X102683329Y-132203351D01*
X102505465Y-132231522D01*
X102310776Y-132294781D01*
X102128386Y-132387715D01*
X101962786Y-132508028D01*
X101818028Y-132652786D01*
X101697715Y-132818386D01*
X101604781Y-133000776D01*
X101541522Y-133195465D01*
X101509500Y-133397648D01*
X96490500Y-133397648D01*
X96458477Y-133195466D01*
X96395220Y-133000781D01*
X96395218Y-133000778D01*
X96395218Y-133000776D01*
X96361503Y-132934607D01*
X96302287Y-132818390D01*
X96272402Y-132777256D01*
X96181971Y-132652786D01*
X96037213Y-132508028D01*
X95871613Y-132387715D01*
X95871612Y-132387714D01*
X95871610Y-132387713D01*
X95771635Y-132336773D01*
X95689223Y-132294781D01*
X95494534Y-132231522D01*
X95319995Y-132203878D01*
X95292352Y-132199500D01*
X95087648Y-132199500D01*
X95063329Y-132203351D01*
X94885465Y-132231522D01*
X94690776Y-132294781D01*
X94508386Y-132387715D01*
X94342786Y-132508028D01*
X94198028Y-132652786D01*
X94077715Y-132818386D01*
X93984781Y-133000776D01*
X93921522Y-133195465D01*
X93889500Y-133397648D01*
X91610500Y-133397648D01*
X91578477Y-133195466D01*
X91515220Y-133000781D01*
X91515218Y-133000778D01*
X91515218Y-133000776D01*
X91481503Y-132934607D01*
X91422287Y-132818390D01*
X91392402Y-132777256D01*
X91301971Y-132652786D01*
X91157213Y-132508028D01*
X90991613Y-132387715D01*
X90991612Y-132387714D01*
X90991610Y-132387713D01*
X90891635Y-132336773D01*
X90809223Y-132294781D01*
X90614534Y-132231522D01*
X90439995Y-132203878D01*
X90412352Y-132199500D01*
X90207648Y-132199500D01*
X90183329Y-132203351D01*
X90005465Y-132231522D01*
X89810776Y-132294781D01*
X89628386Y-132387715D01*
X89462786Y-132508028D01*
X89318028Y-132652786D01*
X89197715Y-132818386D01*
X89104781Y-133000776D01*
X89041522Y-133195465D01*
X89009500Y-133397648D01*
X83990500Y-133397648D01*
X83958477Y-133195466D01*
X83895220Y-133000781D01*
X83895218Y-133000778D01*
X83895218Y-133000776D01*
X83861503Y-132934607D01*
X83802287Y-132818390D01*
X83772402Y-132777256D01*
X83681971Y-132652786D01*
X83537213Y-132508028D01*
X83371613Y-132387715D01*
X83371612Y-132387714D01*
X83371610Y-132387713D01*
X83271635Y-132336773D01*
X83189223Y-132294781D01*
X82994534Y-132231522D01*
X82819995Y-132203878D01*
X82792352Y-132199500D01*
X82587648Y-132199500D01*
X82563329Y-132203351D01*
X82385465Y-132231522D01*
X82190776Y-132294781D01*
X82008386Y-132387715D01*
X81842786Y-132508028D01*
X81698028Y-132652786D01*
X81577715Y-132818386D01*
X81484781Y-133000776D01*
X81421522Y-133195465D01*
X81389500Y-133397648D01*
X73253464Y-133397648D01*
X73163224Y-133179788D01*
X73041936Y-132969711D01*
X72925824Y-132818390D01*
X72894266Y-132777263D01*
X72894260Y-132777256D01*
X72722743Y-132605739D01*
X72722736Y-132605733D01*
X72530293Y-132458067D01*
X72530292Y-132458066D01*
X72530289Y-132458064D01*
X72320212Y-132336776D01*
X72320205Y-132336773D01*
X72096104Y-132243947D01*
X71861785Y-132181161D01*
X71621289Y-132149500D01*
X71621288Y-132149500D01*
X71378712Y-132149500D01*
X71378711Y-132149500D01*
X71138214Y-132181161D01*
X70903895Y-132243947D01*
X70679794Y-132336773D01*
X70679785Y-132336777D01*
X70469706Y-132458067D01*
X70277263Y-132605733D01*
X70277256Y-132605739D01*
X70105739Y-132777256D01*
X70105733Y-132777263D01*
X69958067Y-132969706D01*
X69836777Y-133179785D01*
X69836773Y-133179794D01*
X69743947Y-133403895D01*
X69681161Y-133638214D01*
X69649500Y-133878711D01*
X68000500Y-133878711D01*
X68000500Y-113019982D01*
X73899500Y-113019982D01*
X73899500Y-114820017D01*
X73910000Y-114922796D01*
X73965185Y-115089332D01*
X73965187Y-115089337D01*
X74057289Y-115238657D01*
X74186128Y-115367496D01*
X74219613Y-115428819D01*
X74214629Y-115498511D01*
X74198767Y-115528058D01*
X74198765Y-115528063D01*
X74131128Y-115621158D01*
X74016760Y-115845616D01*
X73938910Y-116085214D01*
X73923235Y-116184184D01*
X73899500Y-116334038D01*
X73899500Y-116585962D01*
X73911572Y-116662181D01*
X73938910Y-116834785D01*
X74016760Y-117074383D01*
X74131132Y-117298848D01*
X74279201Y-117502649D01*
X74279205Y-117502654D01*
X74457345Y-117680794D01*
X74457350Y-117680798D01*
X74661153Y-117828869D01*
X74687018Y-117842048D01*
X74718405Y-117864852D01*
X75329765Y-118476212D01*
X75287708Y-118487482D01*
X75162292Y-118559890D01*
X75059890Y-118662292D01*
X74987482Y-118787708D01*
X74976212Y-118829765D01*
X74205748Y-118059300D01*
X74205747Y-118059301D01*
X74131559Y-118161413D01*
X74017219Y-118385815D01*
X73939397Y-118625330D01*
X73900000Y-118874071D01*
X73900000Y-119125928D01*
X73939397Y-119374669D01*
X74017219Y-119614184D01*
X74131557Y-119838583D01*
X74205748Y-119940697D01*
X74205748Y-119940698D01*
X74976212Y-119170234D01*
X74987482Y-119212292D01*
X75059890Y-119337708D01*
X75162292Y-119440110D01*
X75287708Y-119512518D01*
X75329765Y-119523787D01*
X74718404Y-120135147D01*
X74687023Y-120157948D01*
X74661152Y-120171131D01*
X74457350Y-120319201D01*
X74457345Y-120319205D01*
X74279205Y-120497345D01*
X74279201Y-120497350D01*
X74131132Y-120701151D01*
X74016760Y-120925616D01*
X73938910Y-121165214D01*
X73899500Y-121414038D01*
X73899500Y-121665961D01*
X73938910Y-121914785D01*
X74016760Y-122154383D01*
X74038999Y-122198028D01*
X74112754Y-122342781D01*
X74131132Y-122378848D01*
X74279201Y-122582649D01*
X74279205Y-122582654D01*
X74418870Y-122722319D01*
X74452355Y-122783642D01*
X74447371Y-122853334D01*
X74418870Y-122897681D01*
X74279205Y-123037345D01*
X74279201Y-123037350D01*
X74131132Y-123241151D01*
X74016760Y-123465616D01*
X73944107Y-123689219D01*
X73938910Y-123705215D01*
X73899500Y-123954038D01*
X73899500Y-124205962D01*
X73906112Y-124247708D01*
X73938910Y-124454785D01*
X74016760Y-124694383D01*
X74131132Y-124918848D01*
X74279201Y-125122649D01*
X74279205Y-125122654D01*
X74418870Y-125262319D01*
X74452355Y-125323642D01*
X74447371Y-125393334D01*
X74418870Y-125437681D01*
X74279205Y-125577345D01*
X74279201Y-125577350D01*
X74131132Y-125781151D01*
X74016760Y-126005616D01*
X73951998Y-126204934D01*
X73938910Y-126245215D01*
X73899500Y-126494038D01*
X73899500Y-126745962D01*
X73922020Y-126888147D01*
X73938910Y-126994785D01*
X74016760Y-127234383D01*
X74131132Y-127458848D01*
X74279201Y-127662649D01*
X74279205Y-127662654D01*
X74457345Y-127840794D01*
X74457350Y-127840798D01*
X74535598Y-127897648D01*
X74661155Y-127988870D01*
X74786352Y-128052661D01*
X74885616Y-128103239D01*
X74885618Y-128103239D01*
X74885621Y-128103241D01*
X75125215Y-128181090D01*
X75374038Y-128220500D01*
X75374039Y-128220500D01*
X75625961Y-128220500D01*
X75625962Y-128220500D01*
X75874785Y-128181090D01*
X76114379Y-128103241D01*
X76116193Y-128102317D01*
X76126062Y-128097288D01*
X76338845Y-127988870D01*
X76464402Y-127897648D01*
X81579500Y-127897648D01*
X81579500Y-128102352D01*
X81579641Y-128103241D01*
X81611522Y-128304534D01*
X81674781Y-128499223D01*
X81738691Y-128624653D01*
X81767585Y-128681359D01*
X81767715Y-128681613D01*
X81888028Y-128847213D01*
X82032786Y-128991971D01*
X82153226Y-129079474D01*
X82198390Y-129112287D01*
X82293655Y-129160827D01*
X82380776Y-129205218D01*
X82380778Y-129205218D01*
X82380781Y-129205220D01*
X82485137Y-129239127D01*
X82575465Y-129268477D01*
X82641677Y-129278964D01*
X82777648Y-129300500D01*
X82777649Y-129300500D01*
X82982351Y-129300500D01*
X82982352Y-129300500D01*
X83184534Y-129268477D01*
X83379219Y-129205220D01*
X83561610Y-129112287D01*
X83675273Y-129029707D01*
X83727213Y-128991971D01*
X83727215Y-128991968D01*
X83727219Y-128991966D01*
X83871966Y-128847219D01*
X83871968Y-128847215D01*
X83871971Y-128847213D01*
X83927879Y-128770261D01*
X83992287Y-128681610D01*
X84085220Y-128499219D01*
X84148477Y-128304534D01*
X84180500Y-128102352D01*
X84180500Y-127897682D01*
X89200000Y-127897682D01*
X89200000Y-128102317D01*
X89232009Y-128304417D01*
X89295244Y-128499031D01*
X89388141Y-128681350D01*
X89388147Y-128681359D01*
X89420523Y-128725921D01*
X89420524Y-128725922D01*
X90100000Y-128046446D01*
X90100000Y-128052661D01*
X90127259Y-128154394D01*
X90179920Y-128245606D01*
X90254394Y-128320080D01*
X90345606Y-128372741D01*
X90447339Y-128400000D01*
X90453553Y-128400000D01*
X89774076Y-129079474D01*
X89818650Y-129111859D01*
X90000968Y-129204755D01*
X90195582Y-129267990D01*
X90397683Y-129300000D01*
X90602317Y-129300000D01*
X90804417Y-129267990D01*
X90999031Y-129204755D01*
X91181349Y-129111859D01*
X91225921Y-129079474D01*
X90546447Y-128400000D01*
X90552661Y-128400000D01*
X90654394Y-128372741D01*
X90745606Y-128320080D01*
X90820080Y-128245606D01*
X90872741Y-128154394D01*
X90900000Y-128052661D01*
X90900000Y-128046447D01*
X91579474Y-128725921D01*
X91611859Y-128681349D01*
X91704755Y-128499031D01*
X91767990Y-128304417D01*
X91800000Y-128102317D01*
X91800000Y-127897682D01*
X93890000Y-127897682D01*
X93890000Y-128102317D01*
X93922009Y-128304417D01*
X93985244Y-128499031D01*
X94078141Y-128681350D01*
X94078147Y-128681359D01*
X94110523Y-128725921D01*
X94110524Y-128725922D01*
X94790000Y-128046446D01*
X94790000Y-128052661D01*
X94817259Y-128154394D01*
X94869920Y-128245606D01*
X94944394Y-128320080D01*
X95035606Y-128372741D01*
X95137339Y-128400000D01*
X95143553Y-128400000D01*
X94464076Y-129079474D01*
X94508650Y-129111859D01*
X94690968Y-129204755D01*
X94885582Y-129267990D01*
X95087683Y-129300000D01*
X95292317Y-129300000D01*
X95494417Y-129267990D01*
X95689031Y-129204755D01*
X95871349Y-129111859D01*
X95915921Y-129079474D01*
X95236447Y-128400000D01*
X95242661Y-128400000D01*
X95344394Y-128372741D01*
X95435606Y-128320080D01*
X95510080Y-128245606D01*
X95562741Y-128154394D01*
X95590000Y-128052661D01*
X95590000Y-128046448D01*
X96269474Y-128725922D01*
X96269474Y-128725921D01*
X96301859Y-128681349D01*
X96394755Y-128499031D01*
X96457990Y-128304417D01*
X96490000Y-128102317D01*
X96490000Y-127897682D01*
X96457990Y-127695582D01*
X96394755Y-127500968D01*
X96301859Y-127318650D01*
X96269474Y-127274077D01*
X96269474Y-127274076D01*
X95590000Y-127953551D01*
X95590000Y-127947339D01*
X95562741Y-127845606D01*
X95510080Y-127754394D01*
X95435606Y-127679920D01*
X95344394Y-127627259D01*
X95242661Y-127600000D01*
X95236446Y-127600000D01*
X95915922Y-126920524D01*
X95915921Y-126920523D01*
X95871359Y-126888147D01*
X95871350Y-126888141D01*
X95689031Y-126795244D01*
X95494417Y-126732009D01*
X95292317Y-126700000D01*
X95087683Y-126700000D01*
X94885582Y-126732009D01*
X94690968Y-126795244D01*
X94508644Y-126888143D01*
X94464077Y-126920523D01*
X94464077Y-126920524D01*
X95143554Y-127600000D01*
X95137339Y-127600000D01*
X95035606Y-127627259D01*
X94944394Y-127679920D01*
X94869920Y-127754394D01*
X94817259Y-127845606D01*
X94790000Y-127947339D01*
X94790000Y-127953553D01*
X94110524Y-127274077D01*
X94110523Y-127274077D01*
X94078143Y-127318644D01*
X93985244Y-127500968D01*
X93922009Y-127695582D01*
X93890000Y-127897682D01*
X91800000Y-127897682D01*
X91767990Y-127695582D01*
X91704755Y-127500968D01*
X91611859Y-127318650D01*
X91579474Y-127274077D01*
X91579474Y-127274076D01*
X90900000Y-127953551D01*
X90900000Y-127947339D01*
X90872741Y-127845606D01*
X90820080Y-127754394D01*
X90745606Y-127679920D01*
X90654394Y-127627259D01*
X90552661Y-127600000D01*
X90546446Y-127600000D01*
X91225922Y-126920524D01*
X91225921Y-126920523D01*
X91181359Y-126888147D01*
X91181350Y-126888141D01*
X90999031Y-126795244D01*
X90804417Y-126732009D01*
X90602317Y-126700000D01*
X90397683Y-126700000D01*
X90195582Y-126732009D01*
X90000968Y-126795244D01*
X89818644Y-126888143D01*
X89774077Y-126920523D01*
X89774077Y-126920524D01*
X90453554Y-127600000D01*
X90447339Y-127600000D01*
X90345606Y-127627259D01*
X90254394Y-127679920D01*
X90179920Y-127754394D01*
X90127259Y-127845606D01*
X90100000Y-127947339D01*
X90100000Y-127953553D01*
X89420524Y-127274077D01*
X89420523Y-127274077D01*
X89388143Y-127318644D01*
X89295244Y-127500968D01*
X89232009Y-127695582D01*
X89200000Y-127897682D01*
X84180500Y-127897682D01*
X84180500Y-127897648D01*
X84160240Y-127769735D01*
X84148477Y-127695465D01*
X84088309Y-127510288D01*
X84085220Y-127500781D01*
X84085218Y-127500778D01*
X84085218Y-127500776D01*
X84051503Y-127434607D01*
X83992287Y-127318390D01*
X83984556Y-127307749D01*
X83871971Y-127152786D01*
X83727213Y-127008028D01*
X83561613Y-126887715D01*
X83561612Y-126887714D01*
X83561610Y-126887713D01*
X83504653Y-126858691D01*
X83379223Y-126794781D01*
X83184534Y-126731522D01*
X83009995Y-126703878D01*
X82982352Y-126699500D01*
X82777648Y-126699500D01*
X82753329Y-126703351D01*
X82575465Y-126731522D01*
X82380776Y-126794781D01*
X82198386Y-126887715D01*
X82032786Y-127008028D01*
X81888028Y-127152786D01*
X81767715Y-127318386D01*
X81674781Y-127500776D01*
X81611522Y-127695465D01*
X81579500Y-127897648D01*
X76464402Y-127897648D01*
X76542656Y-127840793D01*
X76720793Y-127662656D01*
X76868870Y-127458845D01*
X76983241Y-127234379D01*
X77061090Y-126994785D01*
X77100500Y-126745962D01*
X77100500Y-126494038D01*
X77061090Y-126245215D01*
X76983241Y-126005621D01*
X76983239Y-126005618D01*
X76983239Y-126005616D01*
X76913022Y-125867809D01*
X76868870Y-125781155D01*
X76849952Y-125755117D01*
X76720798Y-125577350D01*
X76720794Y-125577345D01*
X76581130Y-125437681D01*
X76547645Y-125376358D01*
X76552629Y-125306666D01*
X76581130Y-125262319D01*
X76613714Y-125229735D01*
X76720793Y-125122656D01*
X76868870Y-124918845D01*
X76983241Y-124694379D01*
X77061090Y-124454785D01*
X77100500Y-124205962D01*
X77100500Y-123954038D01*
X77061090Y-123705215D01*
X76983241Y-123465621D01*
X76983239Y-123465618D01*
X76983239Y-123465616D01*
X76894956Y-123292352D01*
X76868870Y-123241155D01*
X76814083Y-123165747D01*
X76720798Y-123037350D01*
X76720794Y-123037345D01*
X76581130Y-122897681D01*
X76547645Y-122836358D01*
X76552629Y-122766666D01*
X76581130Y-122722319D01*
X76612673Y-122690776D01*
X76720793Y-122582656D01*
X76868870Y-122378845D01*
X76983241Y-122154379D01*
X77061090Y-121914785D01*
X77100500Y-121665962D01*
X77100500Y-121414038D01*
X77061090Y-121165215D01*
X76983241Y-120925621D01*
X76983239Y-120925618D01*
X76983239Y-120925616D01*
X76941747Y-120844184D01*
X76868870Y-120701155D01*
X76804302Y-120612284D01*
X76720798Y-120497350D01*
X76720794Y-120497345D01*
X76542654Y-120319205D01*
X76542649Y-120319201D01*
X76338846Y-120171130D01*
X76312979Y-120157950D01*
X76281594Y-120135147D01*
X75670234Y-119523787D01*
X75712292Y-119512518D01*
X75837708Y-119440110D01*
X75940110Y-119337708D01*
X76012518Y-119212292D01*
X76023787Y-119170235D01*
X76794250Y-119940698D01*
X76794250Y-119940697D01*
X76868442Y-119838581D01*
X76868446Y-119838575D01*
X76982780Y-119614184D01*
X77053136Y-119397648D01*
X88889500Y-119397648D01*
X88889500Y-119602351D01*
X88921522Y-119804534D01*
X88984781Y-119999223D01*
X89014098Y-120056759D01*
X89072373Y-120171130D01*
X89077715Y-120181613D01*
X89198028Y-120347213D01*
X89342786Y-120491971D01*
X89497749Y-120604556D01*
X89508390Y-120612287D01*
X89624607Y-120671503D01*
X89690776Y-120705218D01*
X89690778Y-120705218D01*
X89690781Y-120705220D01*
X89795137Y-120739127D01*
X89885465Y-120768477D01*
X89986557Y-120784488D01*
X90087648Y-120800500D01*
X90087649Y-120800500D01*
X90292351Y-120800500D01*
X90292352Y-120800500D01*
X90494534Y-120768477D01*
X90689219Y-120705220D01*
X90871610Y-120612287D01*
X90964590Y-120544732D01*
X91037213Y-120491971D01*
X91037215Y-120491968D01*
X91037219Y-120491966D01*
X91181966Y-120347219D01*
X91181968Y-120347215D01*
X91181971Y-120347213D01*
X91234732Y-120274590D01*
X91302287Y-120181610D01*
X91395220Y-119999219D01*
X91458477Y-119804534D01*
X91490500Y-119602352D01*
X91490500Y-119397648D01*
X96509500Y-119397648D01*
X96509500Y-119602351D01*
X96541522Y-119804534D01*
X96604781Y-119999223D01*
X96634098Y-120056759D01*
X96692373Y-120171130D01*
X96697715Y-120181613D01*
X96818028Y-120347213D01*
X96818034Y-120347219D01*
X96962781Y-120491966D01*
X97128390Y-120612287D01*
X97128394Y-120612289D01*
X97132332Y-120615150D01*
X97131111Y-120616829D01*
X97172155Y-120662177D01*
X97184500Y-120716114D01*
X97184500Y-125867809D01*
X97208537Y-125988655D01*
X97215565Y-126005621D01*
X97255688Y-126102489D01*
X97268994Y-126122402D01*
X97274174Y-126130155D01*
X97274175Y-126130156D01*
X97324140Y-126204934D01*
X97324141Y-126204935D01*
X97324142Y-126204936D01*
X97411267Y-126292061D01*
X97411268Y-126292061D01*
X97418335Y-126299128D01*
X97418334Y-126299128D01*
X97418338Y-126299131D01*
X102415060Y-131295855D01*
X102415064Y-131295858D01*
X102517507Y-131364309D01*
X102517508Y-131364309D01*
X102517512Y-131364312D01*
X102584194Y-131391932D01*
X102631345Y-131411463D01*
X102651394Y-131415451D01*
X102716421Y-131428385D01*
X102752189Y-131435501D01*
X102752191Y-131435501D01*
X102881518Y-131435501D01*
X102881538Y-131435500D01*
X135951607Y-131435500D01*
X136012029Y-131423481D01*
X136072452Y-131411463D01*
X136105792Y-131397652D01*
X136186286Y-131364312D01*
X136237509Y-131330084D01*
X136288733Y-131295858D01*
X136375858Y-131208733D01*
X136375859Y-131208731D01*
X136382925Y-131201665D01*
X136382927Y-131201661D01*
X136876940Y-130707648D01*
X156179500Y-130707648D01*
X156179500Y-130912351D01*
X156211522Y-131114534D01*
X156274781Y-131309223D01*
X156367715Y-131491613D01*
X156488028Y-131657213D01*
X156632786Y-131801971D01*
X156787749Y-131914556D01*
X156798390Y-131922287D01*
X156914607Y-131981503D01*
X156980776Y-132015218D01*
X156980778Y-132015218D01*
X156980781Y-132015220D01*
X157085137Y-132049127D01*
X157175465Y-132078477D01*
X157276557Y-132094488D01*
X157377648Y-132110500D01*
X157377649Y-132110500D01*
X157582351Y-132110500D01*
X157582352Y-132110500D01*
X157784534Y-132078477D01*
X157979219Y-132015220D01*
X158161610Y-131922287D01*
X158254590Y-131854732D01*
X158327213Y-131801971D01*
X158327215Y-131801968D01*
X158327219Y-131801966D01*
X158471966Y-131657219D01*
X158471968Y-131657215D01*
X158471971Y-131657213D01*
X158524732Y-131584590D01*
X158592287Y-131491610D01*
X158685220Y-131309219D01*
X158748477Y-131114534D01*
X158780500Y-130912352D01*
X158780500Y-130707648D01*
X158748477Y-130505466D01*
X158685220Y-130310781D01*
X158685218Y-130310778D01*
X158685218Y-130310776D01*
X158651503Y-130244607D01*
X158592287Y-130128390D01*
X158584556Y-130117749D01*
X158471971Y-129962786D01*
X158327213Y-129818028D01*
X158161613Y-129697715D01*
X158161612Y-129697714D01*
X158161610Y-129697713D01*
X158104653Y-129668691D01*
X157979223Y-129604781D01*
X157784534Y-129541522D01*
X157609995Y-129513878D01*
X157582352Y-129509500D01*
X157377648Y-129509500D01*
X157353329Y-129513351D01*
X157175465Y-129541522D01*
X156980776Y-129604781D01*
X156798386Y-129697715D01*
X156632786Y-129818028D01*
X156488028Y-129962786D01*
X156367715Y-130128386D01*
X156274781Y-130310776D01*
X156211522Y-130505465D01*
X156179500Y-130707648D01*
X136876940Y-130707648D01*
X140710551Y-126874038D01*
X164769500Y-126874038D01*
X164769500Y-127125961D01*
X164808910Y-127374785D01*
X164886760Y-127614383D01*
X165001132Y-127838848D01*
X165068764Y-127931937D01*
X165092244Y-127997743D01*
X165076418Y-128065797D01*
X165056128Y-128092503D01*
X164927287Y-128221345D01*
X164835187Y-128370662D01*
X164835186Y-128370665D01*
X164780001Y-128537202D01*
X164780001Y-128537203D01*
X164780000Y-128537203D01*
X164769500Y-128639982D01*
X164769500Y-130440017D01*
X164780000Y-130542796D01*
X164780001Y-130542798D01*
X164835186Y-130709335D01*
X164927288Y-130858656D01*
X165051344Y-130982712D01*
X165200665Y-131074814D01*
X165367202Y-131129999D01*
X165469990Y-131140500D01*
X165469995Y-131140500D01*
X167270005Y-131140500D01*
X167270010Y-131140500D01*
X167372798Y-131129999D01*
X167539335Y-131074814D01*
X167688656Y-130982712D01*
X167812712Y-130858656D01*
X167904814Y-130709335D01*
X167959999Y-130542798D01*
X167970500Y-130440010D01*
X167970500Y-129983575D01*
X167990185Y-129916536D01*
X168042989Y-129870781D01*
X168112147Y-129860837D01*
X168175703Y-129889862D01*
X168197602Y-129914684D01*
X168288210Y-130050288D01*
X168288213Y-130050292D01*
X168399707Y-130161786D01*
X168399711Y-130161789D01*
X168530814Y-130249390D01*
X168530827Y-130249397D01*
X168676498Y-130309735D01*
X168676503Y-130309737D01*
X168831153Y-130340499D01*
X168831156Y-130340500D01*
X168831158Y-130340500D01*
X168988844Y-130340500D01*
X168988845Y-130340499D01*
X169143497Y-130309737D01*
X169289179Y-130249394D01*
X169420289Y-130161789D01*
X169531789Y-130050289D01*
X169619394Y-129919179D01*
X169679737Y-129773497D01*
X169710500Y-129618842D01*
X169710500Y-129461158D01*
X169710500Y-129461155D01*
X169710499Y-129461153D01*
X169679738Y-129306510D01*
X169679737Y-129306503D01*
X169679735Y-129306498D01*
X169619397Y-129160827D01*
X169619390Y-129160814D01*
X169531789Y-129029711D01*
X169531786Y-129029707D01*
X169420292Y-128918213D01*
X169420288Y-128918210D01*
X169289185Y-128830609D01*
X169289172Y-128830602D01*
X169143501Y-128770264D01*
X169143489Y-128770261D01*
X168988845Y-128739500D01*
X168988842Y-128739500D01*
X168831158Y-128739500D01*
X168831155Y-128739500D01*
X168676510Y-128770261D01*
X168676498Y-128770264D01*
X168530827Y-128830602D01*
X168530814Y-128830609D01*
X168399711Y-128918210D01*
X168399707Y-128918213D01*
X168288213Y-129029707D01*
X168288210Y-129029711D01*
X168197602Y-129165315D01*
X168143989Y-129210120D01*
X168074664Y-129218827D01*
X168011637Y-129188672D01*
X167974918Y-129129229D01*
X167970500Y-129096424D01*
X167970500Y-128639995D01*
X167970499Y-128639982D01*
X167959999Y-128537203D01*
X167947414Y-128499223D01*
X167904814Y-128370665D01*
X167812712Y-128221344D01*
X167688656Y-128097288D01*
X167683871Y-128092503D01*
X167650386Y-128031180D01*
X167655370Y-127961488D01*
X167671234Y-127931937D01*
X167738870Y-127838845D01*
X167853241Y-127614379D01*
X167931090Y-127374785D01*
X167936357Y-127341531D01*
X167966286Y-127278396D01*
X168025597Y-127241464D01*
X168095460Y-127242462D01*
X168153692Y-127281071D01*
X168173391Y-127313476D01*
X168200602Y-127379173D01*
X168200609Y-127379185D01*
X168288210Y-127510288D01*
X168288213Y-127510292D01*
X168399707Y-127621786D01*
X168399711Y-127621789D01*
X168530814Y-127709390D01*
X168530827Y-127709397D01*
X168639461Y-127754394D01*
X168676503Y-127769737D01*
X168831153Y-127800499D01*
X168831156Y-127800500D01*
X168831158Y-127800500D01*
X168988844Y-127800500D01*
X168988845Y-127800499D01*
X169143497Y-127769737D01*
X169289179Y-127709394D01*
X169420289Y-127621789D01*
X169531789Y-127510289D01*
X169619394Y-127379179D01*
X169679737Y-127233497D01*
X169710500Y-127078842D01*
X169710500Y-126921158D01*
X169710500Y-126921155D01*
X169710499Y-126921153D01*
X169685362Y-126794781D01*
X169679737Y-126766503D01*
X169678283Y-126762992D01*
X169619397Y-126620827D01*
X169619390Y-126620814D01*
X169531789Y-126489711D01*
X169531786Y-126489707D01*
X169420292Y-126378213D01*
X169420288Y-126378210D01*
X169289185Y-126290609D01*
X169289172Y-126290602D01*
X169143501Y-126230264D01*
X169143489Y-126230261D01*
X168988845Y-126199500D01*
X168988842Y-126199500D01*
X168831158Y-126199500D01*
X168831155Y-126199500D01*
X168676510Y-126230261D01*
X168676498Y-126230264D01*
X168530827Y-126290602D01*
X168530814Y-126290609D01*
X168399711Y-126378210D01*
X168399707Y-126378213D01*
X168288213Y-126489707D01*
X168288210Y-126489711D01*
X168200609Y-126620814D01*
X168200602Y-126620827D01*
X168173391Y-126686523D01*
X168129550Y-126740927D01*
X168063256Y-126762992D01*
X167995557Y-126745713D01*
X167947946Y-126694576D01*
X167936357Y-126658469D01*
X167936103Y-126656866D01*
X167931090Y-126625215D01*
X167853241Y-126385621D01*
X167853239Y-126385618D01*
X167853239Y-126385616D01*
X167804826Y-126290602D01*
X167738870Y-126161155D01*
X167696247Y-126102489D01*
X167590798Y-125957350D01*
X167590794Y-125957345D01*
X167412654Y-125779205D01*
X167412649Y-125779201D01*
X167208846Y-125631130D01*
X167182979Y-125617950D01*
X167151594Y-125595147D01*
X166540234Y-124983787D01*
X166582292Y-124972518D01*
X166707708Y-124900110D01*
X166810110Y-124797708D01*
X166882518Y-124672292D01*
X166893787Y-124630235D01*
X167664250Y-125400698D01*
X167664250Y-125400697D01*
X167738442Y-125298581D01*
X167738446Y-125298575D01*
X167852780Y-125074184D01*
X167930601Y-124834674D01*
X167935990Y-124800649D01*
X167965919Y-124737514D01*
X168025231Y-124700582D01*
X168095093Y-124701579D01*
X168153326Y-124740189D01*
X168173025Y-124772593D01*
X168200604Y-124839176D01*
X168200609Y-124839185D01*
X168288210Y-124970288D01*
X168288213Y-124970292D01*
X168399707Y-125081786D01*
X168399711Y-125081789D01*
X168530814Y-125169390D01*
X168530827Y-125169397D01*
X168676498Y-125229735D01*
X168676503Y-125229737D01*
X168831153Y-125260499D01*
X168831156Y-125260500D01*
X168831158Y-125260500D01*
X168988844Y-125260500D01*
X168988845Y-125260499D01*
X169143497Y-125229737D01*
X169289179Y-125169394D01*
X169420289Y-125081789D01*
X169531789Y-124970289D01*
X169619394Y-124839179D01*
X169679737Y-124693497D01*
X169710500Y-124538842D01*
X169710500Y-124381158D01*
X169710500Y-124381155D01*
X169710499Y-124381153D01*
X169683955Y-124247708D01*
X169679737Y-124226503D01*
X169678648Y-124223874D01*
X169619397Y-124080827D01*
X169619390Y-124080814D01*
X169531789Y-123949711D01*
X169531786Y-123949707D01*
X169420292Y-123838213D01*
X169420288Y-123838210D01*
X169289185Y-123750609D01*
X169289172Y-123750602D01*
X169143501Y-123690264D01*
X169143489Y-123690261D01*
X168988845Y-123659500D01*
X168988842Y-123659500D01*
X168831158Y-123659500D01*
X168831155Y-123659500D01*
X168676510Y-123690261D01*
X168676498Y-123690264D01*
X168530827Y-123750602D01*
X168530814Y-123750609D01*
X168399711Y-123838210D01*
X168399707Y-123838213D01*
X168288213Y-123949707D01*
X168288210Y-123949711D01*
X168200609Y-124080814D01*
X168200604Y-124080824D01*
X168173025Y-124147406D01*
X168129184Y-124201810D01*
X168062889Y-124223874D01*
X167995190Y-124206594D01*
X167947580Y-124155457D01*
X167935991Y-124119350D01*
X167930603Y-124085331D01*
X167852780Y-123845815D01*
X167738442Y-123621416D01*
X167664250Y-123519301D01*
X167664250Y-123519300D01*
X166893787Y-124289764D01*
X166882518Y-124247708D01*
X166810110Y-124122292D01*
X166707708Y-124019890D01*
X166582292Y-123947482D01*
X166540232Y-123936212D01*
X167310698Y-123165748D01*
X167208583Y-123091557D01*
X166984184Y-122977219D01*
X166744669Y-122899397D01*
X166495928Y-122860000D01*
X166244072Y-122860000D01*
X165995330Y-122899397D01*
X165755815Y-122977219D01*
X165531413Y-123091559D01*
X165429301Y-123165747D01*
X165429300Y-123165748D01*
X166199765Y-123936212D01*
X166157708Y-123947482D01*
X166032292Y-124019890D01*
X165929890Y-124122292D01*
X165857482Y-124247708D01*
X165846212Y-124289765D01*
X165075748Y-123519300D01*
X165075747Y-123519301D01*
X165001559Y-123621413D01*
X164887219Y-123845815D01*
X164809397Y-124085330D01*
X164770000Y-124334071D01*
X164770000Y-124585928D01*
X164809397Y-124834669D01*
X164887219Y-125074184D01*
X165001557Y-125298583D01*
X165075748Y-125400697D01*
X165075748Y-125400698D01*
X165846212Y-124630234D01*
X165857482Y-124672292D01*
X165929890Y-124797708D01*
X166032292Y-124900110D01*
X166157708Y-124972518D01*
X166199765Y-124983787D01*
X165588404Y-125595147D01*
X165557023Y-125617948D01*
X165531152Y-125631131D01*
X165327350Y-125779201D01*
X165327345Y-125779205D01*
X165149205Y-125957345D01*
X165149201Y-125957350D01*
X165001132Y-126161151D01*
X164886760Y-126385616D01*
X164808910Y-126625214D01*
X164769500Y-126874038D01*
X140710551Y-126874038D01*
X144496941Y-123087648D01*
X156179500Y-123087648D01*
X156179500Y-123292351D01*
X156211522Y-123494534D01*
X156274781Y-123689223D01*
X156338691Y-123814653D01*
X156350696Y-123838213D01*
X156367715Y-123871613D01*
X156488028Y-124037213D01*
X156632786Y-124181971D01*
X156787749Y-124294556D01*
X156798390Y-124302287D01*
X156860770Y-124334071D01*
X156980776Y-124395218D01*
X156980778Y-124395218D01*
X156980781Y-124395220D01*
X157085137Y-124429127D01*
X157175465Y-124458477D01*
X157276557Y-124474488D01*
X157377648Y-124490500D01*
X157377649Y-124490500D01*
X157582351Y-124490500D01*
X157582352Y-124490500D01*
X157784534Y-124458477D01*
X157979219Y-124395220D01*
X158161610Y-124302287D01*
X158327219Y-124181966D01*
X158471966Y-124037219D01*
X158471968Y-124037215D01*
X158471971Y-124037213D01*
X158564395Y-123910000D01*
X158592287Y-123871610D01*
X158685220Y-123689219D01*
X158748477Y-123494534D01*
X158780500Y-123292352D01*
X158780500Y-123087648D01*
X158765841Y-122995095D01*
X158748477Y-122885465D01*
X158715392Y-122783642D01*
X158685220Y-122690781D01*
X158685218Y-122690778D01*
X158685218Y-122690776D01*
X158630124Y-122582649D01*
X158592287Y-122508390D01*
X158584556Y-122497749D01*
X158471971Y-122342786D01*
X158327213Y-122198028D01*
X158161613Y-122077715D01*
X158161612Y-122077714D01*
X158161610Y-122077713D01*
X158104653Y-122048691D01*
X157979223Y-121984781D01*
X157784534Y-121921522D01*
X157609995Y-121893878D01*
X157582352Y-121889500D01*
X157377648Y-121889500D01*
X157353329Y-121893351D01*
X157175465Y-121921522D01*
X156980776Y-121984781D01*
X156798386Y-122077715D01*
X156632786Y-122198028D01*
X156488028Y-122342786D01*
X156367715Y-122508386D01*
X156274781Y-122690776D01*
X156211522Y-122885465D01*
X156179500Y-123087648D01*
X144496941Y-123087648D01*
X163045858Y-104538733D01*
X163114312Y-104436285D01*
X163161463Y-104322451D01*
X163185501Y-104201606D01*
X163185501Y-104078393D01*
X163185501Y-104073283D01*
X163185500Y-104073257D01*
X163185500Y-95560452D01*
X163205185Y-95493413D01*
X163221819Y-95472771D01*
X163875745Y-94818845D01*
X164572688Y-94121901D01*
X164634009Y-94088418D01*
X164703701Y-94093402D01*
X164759634Y-94135274D01*
X164782840Y-94190186D01*
X164808910Y-94354785D01*
X164886760Y-94594383D01*
X164965413Y-94748747D01*
X164973257Y-94764142D01*
X165001132Y-94818848D01*
X165149201Y-95022649D01*
X165149205Y-95022654D01*
X165288870Y-95162319D01*
X165322355Y-95223642D01*
X165317371Y-95293334D01*
X165288870Y-95337681D01*
X165149205Y-95477345D01*
X165149201Y-95477350D01*
X165001132Y-95681151D01*
X164886760Y-95905616D01*
X164808910Y-96145214D01*
X164801896Y-96189500D01*
X164769500Y-96394038D01*
X164769500Y-96645962D01*
X164786531Y-96753489D01*
X164808910Y-96894785D01*
X164886760Y-97134383D01*
X164935173Y-97229397D01*
X165000998Y-97358586D01*
X165001132Y-97358848D01*
X165149201Y-97562649D01*
X165149205Y-97562654D01*
X165327345Y-97740794D01*
X165327350Y-97740798D01*
X165531153Y-97888869D01*
X165557018Y-97902048D01*
X165588405Y-97924852D01*
X166199765Y-98536212D01*
X166157708Y-98547482D01*
X166032292Y-98619890D01*
X165929890Y-98722292D01*
X165857482Y-98847708D01*
X165846212Y-98889765D01*
X165075748Y-98119300D01*
X165075747Y-98119301D01*
X165001559Y-98221413D01*
X164887219Y-98445815D01*
X164809397Y-98685330D01*
X164770000Y-98934071D01*
X164770000Y-99185928D01*
X164809397Y-99434669D01*
X164887219Y-99674184D01*
X165001559Y-99898586D01*
X165069125Y-99991584D01*
X165092605Y-100057390D01*
X165076779Y-100125444D01*
X165055254Y-100150984D01*
X165056451Y-100152181D01*
X164927287Y-100281345D01*
X164835187Y-100430662D01*
X164835185Y-100430667D01*
X164811313Y-100502710D01*
X164780001Y-100597202D01*
X164780001Y-100597203D01*
X164780000Y-100597203D01*
X164769500Y-100699982D01*
X164769500Y-102500017D01*
X164780000Y-102602796D01*
X164834627Y-102767648D01*
X164835186Y-102769335D01*
X164927288Y-102918656D01*
X165051344Y-103042712D01*
X165200665Y-103134814D01*
X165367202Y-103189999D01*
X165469990Y-103200500D01*
X165469995Y-103200500D01*
X167270005Y-103200500D01*
X167270010Y-103200500D01*
X167372798Y-103189999D01*
X167539335Y-103134814D01*
X167688656Y-103042712D01*
X167812712Y-102918656D01*
X167904814Y-102769335D01*
X167959999Y-102602798D01*
X167970500Y-102500010D01*
X167970500Y-100699990D01*
X167959999Y-100597202D01*
X167904814Y-100430665D01*
X167812712Y-100281344D01*
X167688656Y-100157288D01*
X167683549Y-100152181D01*
X167685833Y-100149896D01*
X167653801Y-100104415D01*
X167650840Y-100034608D01*
X167670874Y-99991583D01*
X167738440Y-99898587D01*
X167852780Y-99674184D01*
X167930602Y-99434669D01*
X167970000Y-99185928D01*
X167970000Y-98934071D01*
X167930602Y-98685330D01*
X167852780Y-98445815D01*
X167738442Y-98221416D01*
X167664250Y-98119301D01*
X167664250Y-98119300D01*
X166893787Y-98889764D01*
X166882518Y-98847708D01*
X166810110Y-98722292D01*
X166707708Y-98619890D01*
X166582292Y-98547482D01*
X166540232Y-98536212D01*
X167151594Y-97924851D01*
X167182975Y-97902051D01*
X167208845Y-97888870D01*
X167412656Y-97740793D01*
X167590793Y-97562656D01*
X167738870Y-97358845D01*
X167853241Y-97134379D01*
X167931090Y-96894785D01*
X167970500Y-96645962D01*
X167970500Y-96394038D01*
X167931090Y-96145215D01*
X167853241Y-95905621D01*
X167853239Y-95905618D01*
X167853239Y-95905616D01*
X167804826Y-95810602D01*
X167738870Y-95681155D01*
X167664868Y-95579300D01*
X167590798Y-95477350D01*
X167590794Y-95477345D01*
X167451130Y-95337681D01*
X167417645Y-95276358D01*
X167422629Y-95206666D01*
X167451130Y-95162319D01*
X167461892Y-95151557D01*
X167590793Y-95022656D01*
X167738870Y-94818845D01*
X167853241Y-94594379D01*
X167931090Y-94354785D01*
X167970500Y-94105962D01*
X167970500Y-93854038D01*
X167931090Y-93605215D01*
X167853241Y-93365621D01*
X167853239Y-93365618D01*
X167853239Y-93365616D01*
X167811747Y-93284184D01*
X167738870Y-93141155D01*
X167719952Y-93115117D01*
X167590798Y-92937350D01*
X167590794Y-92937345D01*
X167451130Y-92797681D01*
X167417645Y-92736358D01*
X167422629Y-92666666D01*
X167451130Y-92622319D01*
X167590793Y-92482656D01*
X167738870Y-92278845D01*
X167853241Y-92054379D01*
X167931090Y-91814785D01*
X167970500Y-91565962D01*
X167970500Y-91314038D01*
X167931090Y-91065215D01*
X167853241Y-90825621D01*
X167853239Y-90825618D01*
X167853239Y-90825616D01*
X167811747Y-90744184D01*
X167738870Y-90601155D01*
X167719952Y-90575117D01*
X167590798Y-90397350D01*
X167590794Y-90397345D01*
X167451130Y-90257681D01*
X167417645Y-90196358D01*
X167422629Y-90126666D01*
X167451130Y-90082319D01*
X167590793Y-89942656D01*
X167738870Y-89738845D01*
X167853241Y-89514379D01*
X167931090Y-89274785D01*
X167957160Y-89110183D01*
X167987088Y-89047052D01*
X168046399Y-89010120D01*
X168116261Y-89011118D01*
X168167313Y-89041903D01*
X170788181Y-91662771D01*
X170821666Y-91724094D01*
X170824500Y-91750452D01*
X170824500Y-102559547D01*
X170804815Y-102626586D01*
X170788181Y-102647228D01*
X167417229Y-106018181D01*
X167355906Y-106051666D01*
X167329548Y-106054500D01*
X163768388Y-106054500D01*
X163647555Y-106078535D01*
X163647547Y-106078537D01*
X163533716Y-106125687D01*
X163431265Y-106194142D01*
X163431262Y-106194145D01*
X160891269Y-108734140D01*
X160804144Y-108821264D01*
X160804138Y-108821272D01*
X160735692Y-108923705D01*
X160735684Y-108923719D01*
X160712614Y-108979419D01*
X160702347Y-109004207D01*
X160701290Y-109006760D01*
X160688537Y-109037545D01*
X160688535Y-109037553D01*
X160664500Y-109158389D01*
X160664500Y-110551611D01*
X160688535Y-110672444D01*
X160688540Y-110672461D01*
X160735685Y-110786280D01*
X160735687Y-110786283D01*
X160735688Y-110786286D01*
X160769915Y-110837509D01*
X160804142Y-110888733D01*
X160891267Y-110975858D01*
X160891269Y-110975859D01*
X163344141Y-113428732D01*
X163344142Y-113428733D01*
X163414628Y-113499219D01*
X163431269Y-113515860D01*
X163431271Y-113515861D01*
X163518333Y-113574034D01*
X163518334Y-113574034D01*
X163518335Y-113574035D01*
X163533714Y-113584311D01*
X163647548Y-113631463D01*
X163768388Y-113655499D01*
X163768392Y-113655500D01*
X163768393Y-113655500D01*
X163768394Y-113655500D01*
X164816438Y-113655500D01*
X164883477Y-113675185D01*
X164926921Y-113723203D01*
X165001130Y-113868845D01*
X165001132Y-113868848D01*
X165149201Y-114072649D01*
X165149205Y-114072654D01*
X165327345Y-114250794D01*
X165327350Y-114250798D01*
X165531153Y-114398869D01*
X165557018Y-114412048D01*
X165588405Y-114434852D01*
X166199765Y-115046212D01*
X166157708Y-115057482D01*
X166032292Y-115129890D01*
X165929890Y-115232292D01*
X165857482Y-115357708D01*
X165846212Y-115399765D01*
X165075748Y-114629300D01*
X165075747Y-114629301D01*
X165001559Y-114731413D01*
X164887219Y-114955815D01*
X164809397Y-115195330D01*
X164770000Y-115444071D01*
X164770000Y-115695928D01*
X164809397Y-115944669D01*
X164887219Y-116184184D01*
X165001559Y-116408586D01*
X165069125Y-116501584D01*
X165092605Y-116567390D01*
X165076779Y-116635444D01*
X165055254Y-116660984D01*
X165056451Y-116662181D01*
X164927287Y-116791345D01*
X164835187Y-116940662D01*
X164835186Y-116940665D01*
X164780001Y-117107202D01*
X164780001Y-117107203D01*
X164780000Y-117107203D01*
X164769500Y-117209982D01*
X164769500Y-119010017D01*
X164780000Y-119112796D01*
X164812970Y-119212292D01*
X164835186Y-119279335D01*
X164927288Y-119428656D01*
X165051344Y-119552712D01*
X165200665Y-119644814D01*
X165367202Y-119699999D01*
X165469990Y-119710500D01*
X165469995Y-119710500D01*
X167270005Y-119710500D01*
X167270010Y-119710500D01*
X167372798Y-119699999D01*
X167539335Y-119644814D01*
X167688656Y-119552712D01*
X167812712Y-119428656D01*
X167904814Y-119279335D01*
X167959999Y-119112798D01*
X167970500Y-119010010D01*
X167970500Y-117209990D01*
X167959999Y-117107202D01*
X167904814Y-116940665D01*
X167812712Y-116791344D01*
X167688656Y-116667288D01*
X167683549Y-116662181D01*
X167685833Y-116659896D01*
X167653801Y-116614415D01*
X167650840Y-116544608D01*
X167670874Y-116501583D01*
X167738440Y-116408587D01*
X167852780Y-116184184D01*
X167930602Y-115944669D01*
X167970000Y-115695928D01*
X167970000Y-115444071D01*
X167930602Y-115195330D01*
X167852780Y-114955815D01*
X167738442Y-114731416D01*
X167664250Y-114629301D01*
X167664250Y-114629300D01*
X166893787Y-115399764D01*
X166882518Y-115357708D01*
X166810110Y-115232292D01*
X166707708Y-115129890D01*
X166582292Y-115057482D01*
X166540232Y-115046212D01*
X167151594Y-114434851D01*
X167182975Y-114412051D01*
X167208845Y-114398870D01*
X167412656Y-114250793D01*
X167590793Y-114072656D01*
X167738870Y-113868845D01*
X167853241Y-113644379D01*
X167931090Y-113404785D01*
X167970500Y-113155962D01*
X167970500Y-112904038D01*
X167931090Y-112655215D01*
X167853241Y-112415621D01*
X167853239Y-112415618D01*
X167853239Y-112415616D01*
X167803697Y-112318386D01*
X167738870Y-112191155D01*
X167605827Y-112008036D01*
X167590798Y-111987350D01*
X167590794Y-111987345D01*
X167451130Y-111847681D01*
X167417645Y-111786358D01*
X167422629Y-111716666D01*
X167451130Y-111672319D01*
X167590793Y-111532656D01*
X167738870Y-111328845D01*
X167853241Y-111104379D01*
X167931090Y-110864785D01*
X167970500Y-110615962D01*
X167970500Y-110364038D01*
X167931090Y-110115215D01*
X167880578Y-109959758D01*
X167878584Y-109889917D01*
X167910827Y-109833761D01*
X173118729Y-104625860D01*
X173118733Y-104625858D01*
X173205858Y-104538733D01*
X173240084Y-104487509D01*
X173274312Y-104436286D01*
X173321463Y-104322451D01*
X173345500Y-104201607D01*
X173345500Y-104078393D01*
X173345500Y-85028394D01*
X173321463Y-84907548D01*
X173274311Y-84793714D01*
X173274310Y-84793713D01*
X173274307Y-84793707D01*
X173205858Y-84691267D01*
X173205855Y-84691263D01*
X173115637Y-84601045D01*
X173115606Y-84601016D01*
X171943150Y-83428560D01*
X171935860Y-83421270D01*
X171935858Y-83421267D01*
X171848733Y-83334142D01*
X171797509Y-83299915D01*
X171746286Y-83265688D01*
X171746283Y-83265686D01*
X171746280Y-83265685D01*
X171672764Y-83235235D01*
X171672765Y-83235235D01*
X171665792Y-83232347D01*
X171632452Y-83218537D01*
X171567517Y-83205621D01*
X171562985Y-83204719D01*
X171562976Y-83204717D01*
X171522324Y-83196631D01*
X171511607Y-83194500D01*
X171511606Y-83194500D01*
X167923562Y-83194500D01*
X167856523Y-83174815D01*
X167813077Y-83126795D01*
X167738870Y-82981155D01*
X167696407Y-82922710D01*
X167590798Y-82777350D01*
X167590794Y-82777345D01*
X167451130Y-82637681D01*
X167417645Y-82576358D01*
X167422629Y-82506666D01*
X167451130Y-82462319D01*
X167469655Y-82443794D01*
X167590793Y-82322656D01*
X167738870Y-82118845D01*
X167853241Y-81894379D01*
X167931090Y-81654785D01*
X167970500Y-81405962D01*
X167970500Y-81154038D01*
X167931090Y-80905215D01*
X167853241Y-80665621D01*
X167853239Y-80665618D01*
X167853239Y-80665616D01*
X167811747Y-80584184D01*
X167738870Y-80441155D01*
X167719952Y-80415117D01*
X167590798Y-80237350D01*
X167590794Y-80237345D01*
X167451130Y-80097681D01*
X167417645Y-80036358D01*
X167422629Y-79966666D01*
X167451130Y-79922319D01*
X167462786Y-79910663D01*
X167590793Y-79782656D01*
X167738870Y-79578845D01*
X167853241Y-79354379D01*
X167931090Y-79114785D01*
X167970500Y-78865962D01*
X167970500Y-78614038D01*
X167931090Y-78365215D01*
X167853241Y-78125621D01*
X167853239Y-78125618D01*
X167853239Y-78125616D01*
X167811747Y-78044184D01*
X167738870Y-77901155D01*
X167719952Y-77875117D01*
X167590798Y-77697350D01*
X167590794Y-77697345D01*
X167412654Y-77519205D01*
X167412649Y-77519201D01*
X167208848Y-77371132D01*
X167208847Y-77371131D01*
X167208845Y-77371130D01*
X167138747Y-77335413D01*
X166984383Y-77256760D01*
X166744785Y-77178910D01*
X166495962Y-77139500D01*
X166244038Y-77139500D01*
X166119626Y-77159205D01*
X165995214Y-77178910D01*
X165755616Y-77256760D01*
X165531151Y-77371132D01*
X165327350Y-77519201D01*
X165327345Y-77519205D01*
X165149205Y-77697345D01*
X165149201Y-77697350D01*
X165001132Y-77901151D01*
X164886760Y-78125616D01*
X164808910Y-78365214D01*
X164769500Y-78614038D01*
X164769500Y-78865961D01*
X164808910Y-79114785D01*
X164886760Y-79354383D01*
X164950511Y-79479500D01*
X164983980Y-79545187D01*
X165001132Y-79578848D01*
X165149201Y-79782649D01*
X165149205Y-79782654D01*
X165288870Y-79922319D01*
X165322355Y-79983642D01*
X165317371Y-80053334D01*
X165288870Y-80097681D01*
X165149205Y-80237345D01*
X165149201Y-80237350D01*
X165001132Y-80441151D01*
X164886760Y-80665616D01*
X164808910Y-80905214D01*
X164769500Y-81154038D01*
X164769500Y-81405961D01*
X164808910Y-81654785D01*
X164886760Y-81894383D01*
X165001132Y-82118848D01*
X165149201Y-82322649D01*
X165149205Y-82322654D01*
X165288870Y-82462319D01*
X165322355Y-82523642D01*
X165317371Y-82593334D01*
X165288870Y-82637681D01*
X165149205Y-82777345D01*
X165149201Y-82777350D01*
X165001132Y-82981151D01*
X164886760Y-83205616D01*
X164808910Y-83445214D01*
X164769500Y-83694038D01*
X164769500Y-83945961D01*
X164808910Y-84194785D01*
X164886760Y-84434383D01*
X164950766Y-84560000D01*
X164973257Y-84604142D01*
X165001132Y-84658848D01*
X165149201Y-84862649D01*
X165149205Y-84862654D01*
X165288870Y-85002319D01*
X165322355Y-85063642D01*
X165317371Y-85133334D01*
X165288870Y-85177681D01*
X165149205Y-85317345D01*
X165149201Y-85317350D01*
X165001132Y-85521151D01*
X164886760Y-85745616D01*
X164808910Y-85985214D01*
X164769500Y-86234038D01*
X164769500Y-86485961D01*
X164808910Y-86734785D01*
X164886760Y-86974383D01*
X165001132Y-87198848D01*
X165149201Y-87402649D01*
X165149205Y-87402654D01*
X165288870Y-87542319D01*
X165322355Y-87603642D01*
X165317371Y-87673334D01*
X165288870Y-87717681D01*
X165149205Y-87857345D01*
X165149201Y-87857350D01*
X165001132Y-88061151D01*
X165001130Y-88061155D01*
X164950767Y-88159999D01*
X164926923Y-88206795D01*
X164878949Y-88257591D01*
X164816438Y-88274500D01*
X141971606Y-88274500D01*
X141848393Y-88274500D01*
X141820438Y-88280060D01*
X141792482Y-88285621D01*
X141792481Y-88285620D01*
X141727554Y-88298535D01*
X141727545Y-88298538D01*
X141613716Y-88345687D01*
X141613707Y-88345692D01*
X141511268Y-88414140D01*
X141467705Y-88457703D01*
X141424142Y-88501267D01*
X141424139Y-88501270D01*
X103227627Y-126697781D01*
X103166304Y-126731266D01*
X103119584Y-126730776D01*
X103119346Y-126732285D01*
X103015898Y-126715900D01*
X102912352Y-126699500D01*
X102707648Y-126699500D01*
X102683329Y-126703351D01*
X102505465Y-126731522D01*
X102310776Y-126794781D01*
X102128386Y-126887715D01*
X101962786Y-127008028D01*
X101818028Y-127152786D01*
X101697715Y-127318386D01*
X101604781Y-127500776D01*
X101541522Y-127695465D01*
X101509500Y-127897648D01*
X101509500Y-128102352D01*
X101509641Y-128103241D01*
X101541523Y-128304535D01*
X101541524Y-128304542D01*
X101549699Y-128329701D01*
X101551694Y-128399542D01*
X101515613Y-128459375D01*
X101452912Y-128490202D01*
X101383498Y-128482237D01*
X101344087Y-128455699D01*
X98471819Y-125583431D01*
X98438334Y-125522108D01*
X98435500Y-125495750D01*
X98435500Y-120716114D01*
X98455185Y-120649075D01*
X98488575Y-120616398D01*
X98487668Y-120615150D01*
X98491605Y-120612289D01*
X98491610Y-120612287D01*
X98657219Y-120491966D01*
X98801966Y-120347219D01*
X98801968Y-120347215D01*
X98801971Y-120347213D01*
X98854732Y-120274590D01*
X98922287Y-120181610D01*
X99015220Y-119999219D01*
X99078477Y-119804534D01*
X99110500Y-119602352D01*
X99110500Y-119397648D01*
X99078477Y-119195466D01*
X99015220Y-119000781D01*
X99015218Y-119000778D01*
X99015218Y-119000776D01*
X98977928Y-118927591D01*
X98922287Y-118818390D01*
X98914556Y-118807749D01*
X98801971Y-118652786D01*
X98657213Y-118508028D01*
X98491613Y-118387715D01*
X98491612Y-118387714D01*
X98491610Y-118387713D01*
X98434653Y-118358691D01*
X98309223Y-118294781D01*
X98114534Y-118231522D01*
X97939995Y-118203878D01*
X97912352Y-118199500D01*
X97707648Y-118199500D01*
X97683329Y-118203351D01*
X97505465Y-118231522D01*
X97310776Y-118294781D01*
X97128386Y-118387715D01*
X96962786Y-118508028D01*
X96818028Y-118652786D01*
X96697715Y-118818386D01*
X96604781Y-119000776D01*
X96541522Y-119195465D01*
X96509500Y-119397648D01*
X91490500Y-119397648D01*
X91458477Y-119195466D01*
X91395220Y-119000781D01*
X91395218Y-119000778D01*
X91395218Y-119000776D01*
X91357928Y-118927591D01*
X91302287Y-118818390D01*
X91294556Y-118807749D01*
X91181971Y-118652786D01*
X91037213Y-118508028D01*
X90871613Y-118387715D01*
X90871612Y-118387714D01*
X90871610Y-118387713D01*
X90814653Y-118358691D01*
X90689223Y-118294781D01*
X90494534Y-118231522D01*
X90319995Y-118203878D01*
X90292352Y-118199500D01*
X90087648Y-118199500D01*
X90063329Y-118203351D01*
X89885465Y-118231522D01*
X89690776Y-118294781D01*
X89508386Y-118387715D01*
X89342786Y-118508028D01*
X89198028Y-118652786D01*
X89077715Y-118818386D01*
X88984781Y-119000776D01*
X88921522Y-119195465D01*
X88889500Y-119397648D01*
X77053136Y-119397648D01*
X77060601Y-119374674D01*
X77060805Y-119373387D01*
X77060805Y-119373385D01*
X77060807Y-119373378D01*
X77100000Y-119125928D01*
X77100000Y-118874071D01*
X77060602Y-118625330D01*
X76982780Y-118385815D01*
X76868442Y-118161416D01*
X76794250Y-118059301D01*
X76794250Y-118059300D01*
X76023787Y-118829764D01*
X76012518Y-118787708D01*
X75940110Y-118662292D01*
X75837708Y-118559890D01*
X75712292Y-118487482D01*
X75670232Y-118476212D01*
X76281594Y-117864851D01*
X76312975Y-117842051D01*
X76338845Y-117828870D01*
X76542656Y-117680793D01*
X76720793Y-117502656D01*
X76868870Y-117298845D01*
X76983241Y-117074379D01*
X77061090Y-116834785D01*
X77100500Y-116585962D01*
X77100500Y-116334038D01*
X77061090Y-116085215D01*
X76983241Y-115845621D01*
X76983239Y-115845618D01*
X76983239Y-115845616D01*
X76879699Y-115642409D01*
X76868870Y-115621155D01*
X76801233Y-115528060D01*
X76777754Y-115462257D01*
X76793579Y-115394203D01*
X76813871Y-115367495D01*
X76818650Y-115362715D01*
X76818656Y-115362712D01*
X76942712Y-115238656D01*
X77034814Y-115089335D01*
X77089999Y-114922798D01*
X77100500Y-114820010D01*
X77100500Y-113019990D01*
X77089999Y-112917202D01*
X77083519Y-112897648D01*
X79979500Y-112897648D01*
X79979500Y-113102351D01*
X80011522Y-113304534D01*
X80074781Y-113499223D01*
X80118137Y-113584312D01*
X80164439Y-113675185D01*
X80167715Y-113681613D01*
X80288028Y-113847213D01*
X80432786Y-113991971D01*
X80543839Y-114072654D01*
X80598390Y-114112287D01*
X80714607Y-114171503D01*
X80780776Y-114205218D01*
X80780778Y-114205218D01*
X80780781Y-114205220D01*
X80885137Y-114239127D01*
X80975465Y-114268477D01*
X81076557Y-114284488D01*
X81177648Y-114300500D01*
X81177649Y-114300500D01*
X81382351Y-114300500D01*
X81382352Y-114300500D01*
X81584534Y-114268477D01*
X81779219Y-114205220D01*
X81961610Y-114112287D01*
X82054590Y-114044732D01*
X82127213Y-113991971D01*
X82127215Y-113991968D01*
X82127219Y-113991966D01*
X82271966Y-113847219D01*
X82271968Y-113847215D01*
X82271971Y-113847213D01*
X82324732Y-113774590D01*
X82392287Y-113681610D01*
X82485220Y-113499219D01*
X82548477Y-113304534D01*
X82580500Y-113102352D01*
X82580500Y-112897648D01*
X87599500Y-112897648D01*
X87599500Y-113102351D01*
X87631522Y-113304534D01*
X87694781Y-113499223D01*
X87738137Y-113584312D01*
X87784439Y-113675185D01*
X87787715Y-113681613D01*
X87908028Y-113847213D01*
X88052786Y-113991971D01*
X88163839Y-114072654D01*
X88218390Y-114112287D01*
X88334607Y-114171503D01*
X88400776Y-114205218D01*
X88400778Y-114205218D01*
X88400781Y-114205220D01*
X88505137Y-114239127D01*
X88595465Y-114268477D01*
X88696557Y-114284488D01*
X88797648Y-114300500D01*
X88797649Y-114300500D01*
X89002351Y-114300500D01*
X89002352Y-114300500D01*
X89204534Y-114268477D01*
X89399219Y-114205220D01*
X89581610Y-114112287D01*
X89674590Y-114044732D01*
X89747213Y-113991971D01*
X89747215Y-113991968D01*
X89747219Y-113991966D01*
X89891966Y-113847219D01*
X89891968Y-113847215D01*
X89891971Y-113847213D01*
X89944732Y-113774590D01*
X90012287Y-113681610D01*
X90105220Y-113499219D01*
X90168477Y-113304534D01*
X90200500Y-113102352D01*
X90200500Y-112897648D01*
X90168477Y-112695466D01*
X90155398Y-112655214D01*
X90105218Y-112500776D01*
X90053791Y-112399846D01*
X90012287Y-112318390D01*
X90004556Y-112307749D01*
X89891971Y-112152786D01*
X89747221Y-112008036D01*
X89747207Y-112008024D01*
X89621607Y-111916772D01*
X92597158Y-111916772D01*
X92597158Y-112159349D01*
X92628819Y-112399846D01*
X92691605Y-112634165D01*
X92716997Y-112695466D01*
X92784434Y-112858273D01*
X92905722Y-113068350D01*
X92905724Y-113068353D01*
X92905725Y-113068354D01*
X93053391Y-113260797D01*
X93053397Y-113260804D01*
X93224914Y-113432321D01*
X93224920Y-113432326D01*
X93417369Y-113579997D01*
X93627446Y-113701285D01*
X93851558Y-113794115D01*
X94085869Y-113856899D01*
X94266244Y-113880645D01*
X94326369Y-113888561D01*
X94326370Y-113888561D01*
X94568947Y-113888561D01*
X94617046Y-113882228D01*
X94809447Y-113856899D01*
X95043758Y-113794115D01*
X95267870Y-113701285D01*
X95477947Y-113579997D01*
X95670396Y-113432326D01*
X95841923Y-113260799D01*
X95989594Y-113068350D01*
X96110882Y-112858273D01*
X96203712Y-112634161D01*
X96266496Y-112399850D01*
X96298158Y-112159349D01*
X96298158Y-111916773D01*
X96266496Y-111676272D01*
X96203712Y-111441961D01*
X96110882Y-111217849D01*
X95989594Y-111007772D01*
X95898252Y-110888733D01*
X95841924Y-110815324D01*
X95841918Y-110815317D01*
X95670401Y-110643800D01*
X95670394Y-110643794D01*
X95477951Y-110496128D01*
X95477950Y-110496127D01*
X95477947Y-110496125D01*
X95267870Y-110374837D01*
X95241799Y-110364038D01*
X95043762Y-110282008D01*
X94809443Y-110219222D01*
X94568947Y-110187561D01*
X94568946Y-110187561D01*
X94326370Y-110187561D01*
X94326369Y-110187561D01*
X94085872Y-110219222D01*
X93851553Y-110282008D01*
X93627452Y-110374834D01*
X93627443Y-110374838D01*
X93417364Y-110496128D01*
X93224921Y-110643794D01*
X93224914Y-110643800D01*
X93053397Y-110815317D01*
X93053391Y-110815324D01*
X92905725Y-111007767D01*
X92784435Y-111217846D01*
X92784431Y-111217855D01*
X92691605Y-111441956D01*
X92628819Y-111676275D01*
X92597158Y-111916772D01*
X89621607Y-111916772D01*
X89581613Y-111887715D01*
X89581612Y-111887714D01*
X89581610Y-111887713D01*
X89503043Y-111847681D01*
X89399223Y-111794781D01*
X89204534Y-111731522D01*
X89029995Y-111703878D01*
X89002352Y-111699500D01*
X88797648Y-111699500D01*
X88773329Y-111703351D01*
X88595465Y-111731522D01*
X88400776Y-111794781D01*
X88218386Y-111887715D01*
X88052786Y-112008028D01*
X87908028Y-112152786D01*
X87787715Y-112318386D01*
X87694781Y-112500776D01*
X87631522Y-112695465D01*
X87599500Y-112897648D01*
X82580500Y-112897648D01*
X82548477Y-112695466D01*
X82535398Y-112655214D01*
X82485218Y-112500776D01*
X82433791Y-112399846D01*
X82392287Y-112318390D01*
X82384556Y-112307749D01*
X82271971Y-112152786D01*
X82127213Y-112008028D01*
X81961613Y-111887715D01*
X81961612Y-111887714D01*
X81961610Y-111887713D01*
X81883043Y-111847681D01*
X81779223Y-111794781D01*
X81584534Y-111731522D01*
X81409995Y-111703878D01*
X81382352Y-111699500D01*
X81177648Y-111699500D01*
X81153329Y-111703351D01*
X80975465Y-111731522D01*
X80780776Y-111794781D01*
X80598386Y-111887715D01*
X80432786Y-112008028D01*
X80288028Y-112152786D01*
X80167715Y-112318386D01*
X80074781Y-112500776D01*
X80011522Y-112695465D01*
X79979500Y-112897648D01*
X77083519Y-112897648D01*
X77034814Y-112750665D01*
X76942712Y-112601344D01*
X76818656Y-112477288D01*
X76669335Y-112385186D01*
X76502798Y-112330001D01*
X76502796Y-112330000D01*
X76400017Y-112319500D01*
X76400010Y-112319500D01*
X74599990Y-112319500D01*
X74599982Y-112319500D01*
X74497203Y-112330000D01*
X74497202Y-112330001D01*
X74414669Y-112357349D01*
X74330667Y-112385185D01*
X74330662Y-112385187D01*
X74181342Y-112477289D01*
X74057289Y-112601342D01*
X73965187Y-112750662D01*
X73965186Y-112750665D01*
X73910001Y-112917202D01*
X73910001Y-112917203D01*
X73910000Y-112917203D01*
X73899500Y-113019982D01*
X68000500Y-113019982D01*
X68000500Y-108272776D01*
X74653408Y-108272776D01*
X74653408Y-108477411D01*
X74685417Y-108679511D01*
X74748652Y-108874125D01*
X74841549Y-109056444D01*
X74841555Y-109056453D01*
X74873931Y-109101015D01*
X74873932Y-109101016D01*
X75553408Y-108421540D01*
X75553408Y-108427755D01*
X75580667Y-108529488D01*
X75633328Y-108620700D01*
X75707802Y-108695174D01*
X75799014Y-108747835D01*
X75900747Y-108775094D01*
X75906961Y-108775094D01*
X75227484Y-109454568D01*
X75272058Y-109486953D01*
X75454376Y-109579849D01*
X75648990Y-109643084D01*
X75851091Y-109675094D01*
X76055725Y-109675094D01*
X76257825Y-109643084D01*
X76452439Y-109579849D01*
X76634757Y-109486953D01*
X76679329Y-109454568D01*
X75999855Y-108775094D01*
X76006069Y-108775094D01*
X76107802Y-108747835D01*
X76199014Y-108695174D01*
X76273488Y-108620700D01*
X76326149Y-108529488D01*
X76353408Y-108427755D01*
X76353408Y-108421541D01*
X77032882Y-109101015D01*
X77065267Y-109056443D01*
X77158163Y-108874125D01*
X77221398Y-108679511D01*
X77253408Y-108477411D01*
X77253408Y-108272776D01*
X77253403Y-108272742D01*
X82272908Y-108272742D01*
X82272908Y-108477445D01*
X82304930Y-108679628D01*
X82368189Y-108874317D01*
X82432099Y-108999747D01*
X82460993Y-109056453D01*
X82461123Y-109056707D01*
X82581436Y-109222307D01*
X82726194Y-109367065D01*
X82880386Y-109479090D01*
X82891798Y-109487381D01*
X83008015Y-109546597D01*
X83074184Y-109580312D01*
X83074186Y-109580312D01*
X83074189Y-109580314D01*
X83178545Y-109614221D01*
X83268873Y-109643571D01*
X83369965Y-109659582D01*
X83471056Y-109675594D01*
X83471057Y-109675594D01*
X83675759Y-109675594D01*
X83675760Y-109675594D01*
X83877942Y-109643571D01*
X84072627Y-109580314D01*
X84255018Y-109487381D01*
X84347998Y-109419826D01*
X84420621Y-109367065D01*
X84420623Y-109367062D01*
X84420627Y-109367060D01*
X84565374Y-109222313D01*
X84565376Y-109222309D01*
X84565379Y-109222307D01*
X84618140Y-109149684D01*
X84685695Y-109056704D01*
X84778628Y-108874313D01*
X84841885Y-108679628D01*
X84873908Y-108477446D01*
X84873908Y-108272742D01*
X84865665Y-108220700D01*
X84841885Y-108070559D01*
X84810866Y-107975094D01*
X84778628Y-107875875D01*
X84778626Y-107875872D01*
X84778626Y-107875870D01*
X84685827Y-107693744D01*
X84685695Y-107693484D01*
X84653500Y-107649171D01*
X84565379Y-107527880D01*
X84420621Y-107383122D01*
X84255021Y-107262809D01*
X84255020Y-107262808D01*
X84255018Y-107262807D01*
X84198061Y-107233785D01*
X84072631Y-107169875D01*
X83877942Y-107106616D01*
X83701873Y-107078730D01*
X83675760Y-107074594D01*
X83471056Y-107074594D01*
X83446737Y-107078445D01*
X83268873Y-107106616D01*
X83074184Y-107169875D01*
X82891794Y-107262809D01*
X82726194Y-107383122D01*
X82581436Y-107527880D01*
X82461123Y-107693480D01*
X82368189Y-107875870D01*
X82304930Y-108070559D01*
X82272908Y-108272742D01*
X77253403Y-108272742D01*
X77221398Y-108070676D01*
X77158163Y-107876062D01*
X77065267Y-107693744D01*
X77032882Y-107649171D01*
X77032882Y-107649170D01*
X76353408Y-108328645D01*
X76353408Y-108322433D01*
X76326149Y-108220700D01*
X76273488Y-108129488D01*
X76199014Y-108055014D01*
X76107802Y-108002353D01*
X76006069Y-107975094D01*
X75999854Y-107975094D01*
X76679330Y-107295618D01*
X76679329Y-107295617D01*
X76634767Y-107263241D01*
X76634758Y-107263235D01*
X76452439Y-107170338D01*
X76257825Y-107107103D01*
X76055725Y-107075094D01*
X75851091Y-107075094D01*
X75648990Y-107107103D01*
X75454376Y-107170338D01*
X75272052Y-107263237D01*
X75227485Y-107295617D01*
X75227485Y-107295618D01*
X75906962Y-107975094D01*
X75900747Y-107975094D01*
X75799014Y-108002353D01*
X75707802Y-108055014D01*
X75633328Y-108129488D01*
X75580667Y-108220700D01*
X75553408Y-108322433D01*
X75553408Y-108328647D01*
X74873932Y-107649171D01*
X74873931Y-107649171D01*
X74841551Y-107693738D01*
X74748652Y-107876062D01*
X74685417Y-108070676D01*
X74653408Y-108272776D01*
X68000500Y-108272776D01*
X68000500Y-102767648D01*
X96489500Y-102767648D01*
X96489500Y-102972351D01*
X96521522Y-103174534D01*
X96584781Y-103369223D01*
X96677715Y-103551613D01*
X96798028Y-103717213D01*
X96942786Y-103861971D01*
X97097749Y-103974556D01*
X97108390Y-103982287D01*
X97224607Y-104041503D01*
X97290776Y-104075218D01*
X97290778Y-104075218D01*
X97290781Y-104075220D01*
X97395137Y-104109127D01*
X97485465Y-104138477D01*
X97586557Y-104154488D01*
X97687648Y-104170500D01*
X97687649Y-104170500D01*
X97892351Y-104170500D01*
X97892352Y-104170500D01*
X98094534Y-104138477D01*
X98289219Y-104075220D01*
X98471610Y-103982287D01*
X98564590Y-103914732D01*
X98637213Y-103861971D01*
X98637215Y-103861968D01*
X98637219Y-103861966D01*
X98781966Y-103717219D01*
X98781968Y-103717215D01*
X98781971Y-103717213D01*
X98834732Y-103644590D01*
X98902287Y-103551610D01*
X98995220Y-103369219D01*
X99058477Y-103174534D01*
X99090500Y-102972352D01*
X99090500Y-102767648D01*
X104109500Y-102767648D01*
X104109500Y-102972351D01*
X104141522Y-103174534D01*
X104204781Y-103369223D01*
X104297715Y-103551613D01*
X104418028Y-103717213D01*
X104562786Y-103861971D01*
X104717749Y-103974556D01*
X104728390Y-103982287D01*
X104844607Y-104041503D01*
X104910776Y-104075218D01*
X104910778Y-104075218D01*
X104910781Y-104075220D01*
X105015137Y-104109127D01*
X105105465Y-104138477D01*
X105206557Y-104154488D01*
X105307648Y-104170500D01*
X105307649Y-104170500D01*
X105512351Y-104170500D01*
X105512352Y-104170500D01*
X105714534Y-104138477D01*
X105909219Y-104075220D01*
X106091610Y-103982287D01*
X106184590Y-103914732D01*
X106257213Y-103861971D01*
X106257215Y-103861968D01*
X106257219Y-103861966D01*
X106401966Y-103717219D01*
X106401968Y-103717215D01*
X106401971Y-103717213D01*
X106454732Y-103644590D01*
X106522287Y-103551610D01*
X106615220Y-103369219D01*
X106678477Y-103174534D01*
X106710500Y-102972352D01*
X106710500Y-102767648D01*
X106678477Y-102565466D01*
X106615220Y-102370781D01*
X106615218Y-102370778D01*
X106615218Y-102370776D01*
X106581503Y-102304607D01*
X106522287Y-102188390D01*
X106514556Y-102177749D01*
X106401971Y-102022786D01*
X106257213Y-101878028D01*
X106091613Y-101757715D01*
X106091612Y-101757714D01*
X106091610Y-101757713D01*
X106034653Y-101728691D01*
X105909223Y-101664781D01*
X105714534Y-101601522D01*
X105539995Y-101573878D01*
X105512352Y-101569500D01*
X105307648Y-101569500D01*
X105283329Y-101573351D01*
X105105465Y-101601522D01*
X104910776Y-101664781D01*
X104728386Y-101757715D01*
X104562786Y-101878028D01*
X104418028Y-102022786D01*
X104297715Y-102188386D01*
X104204781Y-102370776D01*
X104141522Y-102565465D01*
X104109500Y-102767648D01*
X99090500Y-102767648D01*
X99058477Y-102565466D01*
X98995220Y-102370781D01*
X98995218Y-102370778D01*
X98995218Y-102370776D01*
X98961503Y-102304607D01*
X98902287Y-102188390D01*
X98894556Y-102177749D01*
X98781971Y-102022786D01*
X98637213Y-101878028D01*
X98471613Y-101757715D01*
X98471612Y-101757714D01*
X98471610Y-101757713D01*
X98414653Y-101728691D01*
X98289223Y-101664781D01*
X98094534Y-101601522D01*
X97919995Y-101573878D01*
X97892352Y-101569500D01*
X97687648Y-101569500D01*
X97663329Y-101573351D01*
X97485465Y-101601522D01*
X97290776Y-101664781D01*
X97108386Y-101757715D01*
X96942786Y-101878028D01*
X96798028Y-102022786D01*
X96677715Y-102188386D01*
X96584781Y-102370776D01*
X96521522Y-102565465D01*
X96489500Y-102767648D01*
X68000500Y-102767648D01*
X68000500Y-98159982D01*
X75869500Y-98159982D01*
X75869500Y-99960017D01*
X75880000Y-100062796D01*
X75935185Y-100229332D01*
X75935187Y-100229337D01*
X75952614Y-100257591D01*
X76027288Y-100378656D01*
X76151344Y-100502712D01*
X76300665Y-100594814D01*
X76467202Y-100649999D01*
X76569990Y-100660500D01*
X76569995Y-100660500D01*
X78370005Y-100660500D01*
X78370010Y-100660500D01*
X78472798Y-100649999D01*
X78639335Y-100594814D01*
X78788656Y-100502712D01*
X78912712Y-100378656D01*
X79004814Y-100229335D01*
X79059999Y-100062798D01*
X79070500Y-99960010D01*
X79070500Y-99503575D01*
X79090185Y-99436536D01*
X79142989Y-99390781D01*
X79212147Y-99380837D01*
X79275703Y-99409862D01*
X79297602Y-99434684D01*
X79388210Y-99570288D01*
X79388213Y-99570292D01*
X79499707Y-99681786D01*
X79499711Y-99681789D01*
X79630814Y-99769390D01*
X79630827Y-99769397D01*
X79752288Y-99819707D01*
X79776503Y-99829737D01*
X79931153Y-99860499D01*
X79931156Y-99860500D01*
X79931158Y-99860500D01*
X80088844Y-99860500D01*
X80088845Y-99860499D01*
X80243497Y-99829737D01*
X80389179Y-99769394D01*
X80520289Y-99681789D01*
X80631789Y-99570289D01*
X80719394Y-99439179D01*
X80779737Y-99293497D01*
X80810500Y-99138842D01*
X80810500Y-98981158D01*
X80810500Y-98981155D01*
X80810499Y-98981153D01*
X80779737Y-98826503D01*
X80743421Y-98738827D01*
X80719397Y-98680827D01*
X80719390Y-98680814D01*
X80631789Y-98549711D01*
X80631786Y-98549707D01*
X80520292Y-98438213D01*
X80520288Y-98438210D01*
X80389185Y-98350609D01*
X80389172Y-98350602D01*
X80243501Y-98290264D01*
X80243489Y-98290261D01*
X80088845Y-98259500D01*
X80088842Y-98259500D01*
X79931158Y-98259500D01*
X79931155Y-98259500D01*
X79776510Y-98290261D01*
X79776498Y-98290264D01*
X79630827Y-98350602D01*
X79630814Y-98350609D01*
X79499711Y-98438210D01*
X79499707Y-98438213D01*
X79388213Y-98549707D01*
X79388210Y-98549711D01*
X79297602Y-98685315D01*
X79243989Y-98730120D01*
X79174664Y-98738827D01*
X79111637Y-98708672D01*
X79074918Y-98649229D01*
X79070500Y-98616424D01*
X79070500Y-98159995D01*
X79070499Y-98159982D01*
X79066465Y-98120500D01*
X79059999Y-98057202D01*
X79004814Y-97890665D01*
X78912712Y-97741344D01*
X78788656Y-97617288D01*
X78783549Y-97612181D01*
X78785833Y-97609896D01*
X78753801Y-97564415D01*
X78750840Y-97494608D01*
X78770874Y-97451583D01*
X78838440Y-97358587D01*
X78952780Y-97134184D01*
X79030601Y-96894674D01*
X79035990Y-96860649D01*
X79065919Y-96797514D01*
X79125231Y-96760582D01*
X79195093Y-96761579D01*
X79253326Y-96800189D01*
X79273025Y-96832593D01*
X79300604Y-96899176D01*
X79300609Y-96899185D01*
X79388210Y-97030288D01*
X79388213Y-97030292D01*
X79499707Y-97141786D01*
X79499711Y-97141789D01*
X79630814Y-97229390D01*
X79630827Y-97229397D01*
X79752288Y-97279707D01*
X79776503Y-97289737D01*
X79931153Y-97320499D01*
X79931156Y-97320500D01*
X79931158Y-97320500D01*
X80088844Y-97320500D01*
X80088845Y-97320499D01*
X80243497Y-97289737D01*
X80389179Y-97229394D01*
X80520289Y-97141789D01*
X80631789Y-97030289D01*
X80719394Y-96899179D01*
X80723204Y-96889982D01*
X80746975Y-96832593D01*
X80779737Y-96753497D01*
X80810500Y-96598842D01*
X80810500Y-96441158D01*
X80810500Y-96441155D01*
X80810499Y-96441153D01*
X80779738Y-96286510D01*
X80779737Y-96286503D01*
X80778648Y-96283874D01*
X80719397Y-96140827D01*
X80719390Y-96140814D01*
X80631789Y-96009711D01*
X80631786Y-96009707D01*
X80520292Y-95898213D01*
X80520288Y-95898210D01*
X80389185Y-95810609D01*
X80389172Y-95810602D01*
X80243501Y-95750264D01*
X80243489Y-95750261D01*
X80088845Y-95719500D01*
X80088842Y-95719500D01*
X79931158Y-95719500D01*
X79931155Y-95719500D01*
X79776510Y-95750261D01*
X79776498Y-95750264D01*
X79630827Y-95810602D01*
X79630814Y-95810609D01*
X79499711Y-95898210D01*
X79499707Y-95898213D01*
X79388213Y-96009707D01*
X79388210Y-96009711D01*
X79300609Y-96140814D01*
X79300604Y-96140824D01*
X79273025Y-96207406D01*
X79229184Y-96261810D01*
X79162889Y-96283874D01*
X79095190Y-96266594D01*
X79047580Y-96215457D01*
X79035991Y-96179350D01*
X79030603Y-96145331D01*
X78952780Y-95905815D01*
X78838442Y-95681416D01*
X78764250Y-95579301D01*
X78764250Y-95579300D01*
X77993787Y-96349764D01*
X77982518Y-96307708D01*
X77910110Y-96182292D01*
X77807708Y-96079890D01*
X77682292Y-96007482D01*
X77640232Y-95996212D01*
X78410698Y-95225748D01*
X78308583Y-95151557D01*
X78084184Y-95037219D01*
X77844669Y-94959397D01*
X77595928Y-94920000D01*
X77344072Y-94920000D01*
X77095330Y-94959397D01*
X76855815Y-95037219D01*
X76631413Y-95151559D01*
X76529301Y-95225747D01*
X76529300Y-95225748D01*
X77299765Y-95996212D01*
X77257708Y-96007482D01*
X77132292Y-96079890D01*
X77029890Y-96182292D01*
X76957482Y-96307708D01*
X76946212Y-96349765D01*
X76175748Y-95579300D01*
X76175747Y-95579301D01*
X76101559Y-95681413D01*
X75987219Y-95905815D01*
X75909397Y-96145330D01*
X75870000Y-96394071D01*
X75870000Y-96645928D01*
X75909397Y-96894669D01*
X75987219Y-97134184D01*
X76101559Y-97358586D01*
X76169125Y-97451584D01*
X76192605Y-97517390D01*
X76176779Y-97585444D01*
X76155254Y-97610984D01*
X76156451Y-97612181D01*
X76027287Y-97741345D01*
X75935187Y-97890662D01*
X75935185Y-97890667D01*
X75907349Y-97974669D01*
X75880001Y-98057202D01*
X75880001Y-98057203D01*
X75880000Y-98057203D01*
X75869500Y-98159982D01*
X68000500Y-98159982D01*
X68000500Y-86242014D01*
X76940000Y-86242014D01*
X76940000Y-86477985D01*
X76970799Y-86711914D01*
X77031870Y-86939837D01*
X77122160Y-87157819D01*
X77122165Y-87157828D01*
X77240144Y-87362171D01*
X77240145Y-87362172D01*
X77302721Y-87443723D01*
X78138958Y-86607487D01*
X78163978Y-86667890D01*
X78235112Y-86774351D01*
X78325649Y-86864888D01*
X78432110Y-86936022D01*
X78492511Y-86961041D01*
X77656275Y-87797277D01*
X77737827Y-87859854D01*
X77737828Y-87859855D01*
X77942171Y-87977834D01*
X77942180Y-87977839D01*
X78160163Y-88068129D01*
X78160161Y-88068129D01*
X78388085Y-88129200D01*
X78622014Y-88159999D01*
X78622029Y-88160000D01*
X78857971Y-88160000D01*
X78857985Y-88159999D01*
X79091914Y-88129200D01*
X79319837Y-88068129D01*
X79537819Y-87977839D01*
X79537828Y-87977834D01*
X79742181Y-87859850D01*
X79823723Y-87797279D01*
X79823723Y-87797276D01*
X78987487Y-86961041D01*
X79047890Y-86936022D01*
X79154351Y-86864888D01*
X79244888Y-86774351D01*
X79316022Y-86667890D01*
X79341041Y-86607487D01*
X80177276Y-87443723D01*
X80177279Y-87443723D01*
X80239850Y-87362181D01*
X80357834Y-87157828D01*
X80357839Y-87157819D01*
X80448129Y-86939837D01*
X80509200Y-86711914D01*
X80539999Y-86477985D01*
X80540000Y-86477971D01*
X80540000Y-86242028D01*
X80539999Y-86242014D01*
X80509200Y-86008085D01*
X80448129Y-85780162D01*
X80357839Y-85562180D01*
X80357834Y-85562171D01*
X80239855Y-85357828D01*
X80239854Y-85357827D01*
X80177277Y-85276275D01*
X79341041Y-86112511D01*
X79316022Y-86052110D01*
X79244888Y-85945649D01*
X79154351Y-85855112D01*
X79047890Y-85783978D01*
X78987488Y-85758958D01*
X79823723Y-84922721D01*
X79742172Y-84860145D01*
X79742171Y-84860144D01*
X79537828Y-84742165D01*
X79537819Y-84742160D01*
X79319836Y-84651870D01*
X79319838Y-84651870D01*
X79091914Y-84590799D01*
X78857985Y-84560000D01*
X78622014Y-84560000D01*
X78388085Y-84590799D01*
X78160162Y-84651870D01*
X77942180Y-84742160D01*
X77942171Y-84742165D01*
X77737828Y-84860144D01*
X77737818Y-84860150D01*
X77656275Y-84922720D01*
X77656275Y-84922721D01*
X78492512Y-85758958D01*
X78432110Y-85783978D01*
X78325649Y-85855112D01*
X78235112Y-85945649D01*
X78163978Y-86052110D01*
X78138958Y-86112511D01*
X77302721Y-85276275D01*
X77302720Y-85276275D01*
X77240150Y-85357818D01*
X77240144Y-85357828D01*
X77122165Y-85562171D01*
X77122160Y-85562180D01*
X77031870Y-85780162D01*
X76970799Y-86008085D01*
X76940000Y-86242014D01*
X68000500Y-86242014D01*
X68000500Y-83716772D01*
X92597158Y-83716772D01*
X92597158Y-83959349D01*
X92628819Y-84199846D01*
X92691605Y-84434165D01*
X92724345Y-84513205D01*
X92784434Y-84658273D01*
X92905722Y-84868350D01*
X92905724Y-84868353D01*
X92905725Y-84868354D01*
X93053391Y-85060797D01*
X93053397Y-85060804D01*
X93224914Y-85232321D01*
X93224921Y-85232327D01*
X93329758Y-85312771D01*
X93417369Y-85379997D01*
X93627446Y-85501285D01*
X93851558Y-85594115D01*
X94085869Y-85656899D01*
X94266244Y-85680645D01*
X94326369Y-85688561D01*
X94326370Y-85688561D01*
X94568947Y-85688561D01*
X94617046Y-85682228D01*
X94809447Y-85656899D01*
X95043758Y-85594115D01*
X95267870Y-85501285D01*
X95477947Y-85379997D01*
X95670396Y-85232326D01*
X95841923Y-85060799D01*
X95989594Y-84868350D01*
X96110882Y-84658273D01*
X96203712Y-84434161D01*
X96266496Y-84199850D01*
X96298158Y-83959349D01*
X96298158Y-83716773D01*
X96298158Y-83716772D01*
X142597158Y-83716772D01*
X142597158Y-83959349D01*
X142628819Y-84199846D01*
X142691605Y-84434165D01*
X142724345Y-84513205D01*
X142784434Y-84658273D01*
X142905722Y-84868350D01*
X142905724Y-84868353D01*
X142905725Y-84868354D01*
X143053391Y-85060797D01*
X143053397Y-85060804D01*
X143224914Y-85232321D01*
X143224921Y-85232327D01*
X143329758Y-85312771D01*
X143417369Y-85379997D01*
X143627446Y-85501285D01*
X143851558Y-85594115D01*
X144085869Y-85656899D01*
X144266244Y-85680645D01*
X144326369Y-85688561D01*
X144326370Y-85688561D01*
X144568947Y-85688561D01*
X144617046Y-85682228D01*
X144809447Y-85656899D01*
X145043758Y-85594115D01*
X145267870Y-85501285D01*
X145477947Y-85379997D01*
X145670396Y-85232326D01*
X145841923Y-85060799D01*
X145989594Y-84868350D01*
X146110882Y-84658273D01*
X146203712Y-84434161D01*
X146266496Y-84199850D01*
X146298158Y-83959349D01*
X146298158Y-83716773D01*
X146266496Y-83476272D01*
X146203712Y-83241961D01*
X146110882Y-83017849D01*
X145989594Y-82807772D01*
X145841923Y-82615323D01*
X145841918Y-82615317D01*
X145670401Y-82443800D01*
X145670394Y-82443794D01*
X145477951Y-82296128D01*
X145477950Y-82296127D01*
X145477947Y-82296125D01*
X145267870Y-82174837D01*
X145267863Y-82174834D01*
X145043762Y-82082008D01*
X144809443Y-82019222D01*
X144568947Y-81987561D01*
X144568946Y-81987561D01*
X144326370Y-81987561D01*
X144326369Y-81987561D01*
X144085872Y-82019222D01*
X143851553Y-82082008D01*
X143627452Y-82174834D01*
X143627443Y-82174838D01*
X143417364Y-82296128D01*
X143224921Y-82443794D01*
X143224914Y-82443800D01*
X143053397Y-82615317D01*
X143053391Y-82615324D01*
X142905725Y-82807767D01*
X142784435Y-83017846D01*
X142784431Y-83017855D01*
X142691605Y-83241956D01*
X142628819Y-83476275D01*
X142597158Y-83716772D01*
X96298158Y-83716772D01*
X96266496Y-83476272D01*
X96203712Y-83241961D01*
X96110882Y-83017849D01*
X95989594Y-82807772D01*
X95841923Y-82615323D01*
X95841918Y-82615317D01*
X95670401Y-82443800D01*
X95670394Y-82443794D01*
X95477951Y-82296128D01*
X95477950Y-82296127D01*
X95477947Y-82296125D01*
X95267870Y-82174837D01*
X95267863Y-82174834D01*
X95043762Y-82082008D01*
X94809443Y-82019222D01*
X94568947Y-81987561D01*
X94568946Y-81987561D01*
X94326370Y-81987561D01*
X94326369Y-81987561D01*
X94085872Y-82019222D01*
X93851553Y-82082008D01*
X93627452Y-82174834D01*
X93627443Y-82174838D01*
X93417364Y-82296128D01*
X93224921Y-82443794D01*
X93224914Y-82443800D01*
X93053397Y-82615317D01*
X93053391Y-82615324D01*
X92905725Y-82807767D01*
X92784435Y-83017846D01*
X92784431Y-83017855D01*
X92691605Y-83241956D01*
X92628819Y-83476275D01*
X92597158Y-83716772D01*
X68000500Y-83716772D01*
X68000500Y-80179983D01*
X76939500Y-80179983D01*
X76939500Y-82380001D01*
X76939501Y-82380018D01*
X76950000Y-82482796D01*
X76950001Y-82482799D01*
X76993914Y-82615317D01*
X77005186Y-82649334D01*
X77097288Y-82798656D01*
X77221344Y-82922712D01*
X77370666Y-83014814D01*
X77537203Y-83069999D01*
X77639991Y-83080500D01*
X79840008Y-83080499D01*
X79942797Y-83069999D01*
X80109334Y-83014814D01*
X80258656Y-82922712D01*
X80382712Y-82798656D01*
X80474814Y-82649334D01*
X80529999Y-82482797D01*
X80540500Y-82380009D01*
X80540499Y-80179992D01*
X80529999Y-80077203D01*
X80474814Y-79910666D01*
X80382712Y-79761344D01*
X80258656Y-79637288D01*
X80109334Y-79545186D01*
X79942797Y-79490001D01*
X79942795Y-79490000D01*
X79840010Y-79479500D01*
X77639998Y-79479500D01*
X77639981Y-79479501D01*
X77537203Y-79490000D01*
X77537200Y-79490001D01*
X77370668Y-79545185D01*
X77370663Y-79545187D01*
X77221342Y-79637289D01*
X77097289Y-79761342D01*
X77005187Y-79910663D01*
X77005185Y-79910668D01*
X76986629Y-79966666D01*
X76950001Y-80077203D01*
X76950001Y-80077204D01*
X76950000Y-80077204D01*
X76939500Y-80179983D01*
X68000500Y-80179983D01*
X68000500Y-74808711D01*
X69649500Y-74808711D01*
X69649500Y-75051288D01*
X69681161Y-75291785D01*
X69743947Y-75526104D01*
X69836773Y-75750205D01*
X69836776Y-75750212D01*
X69958064Y-75960289D01*
X69958066Y-75960292D01*
X69958067Y-75960293D01*
X70105733Y-76152736D01*
X70105739Y-76152743D01*
X70277256Y-76324260D01*
X70277262Y-76324265D01*
X70469711Y-76471936D01*
X70679788Y-76593224D01*
X70903900Y-76686054D01*
X71138211Y-76748838D01*
X71318586Y-76772584D01*
X71378711Y-76780500D01*
X71378712Y-76780500D01*
X71621289Y-76780500D01*
X71669388Y-76774167D01*
X71861789Y-76748838D01*
X72096100Y-76686054D01*
X72320212Y-76593224D01*
X72530289Y-76471936D01*
X72722738Y-76324265D01*
X72894265Y-76152738D01*
X73041936Y-75960289D01*
X73163224Y-75750212D01*
X73256054Y-75526100D01*
X73318838Y-75291789D01*
X73350500Y-75051288D01*
X73350500Y-74808712D01*
X73350500Y-74808711D01*
X173409500Y-74808711D01*
X173409500Y-75051288D01*
X173441161Y-75291785D01*
X173503947Y-75526104D01*
X173596773Y-75750205D01*
X173596776Y-75750212D01*
X173718064Y-75960289D01*
X173718066Y-75960292D01*
X173718067Y-75960293D01*
X173865733Y-76152736D01*
X173865739Y-76152743D01*
X174037256Y-76324260D01*
X174037262Y-76324265D01*
X174229711Y-76471936D01*
X174439788Y-76593224D01*
X174663900Y-76686054D01*
X174898211Y-76748838D01*
X175078586Y-76772584D01*
X175138711Y-76780500D01*
X175138712Y-76780500D01*
X175381289Y-76780500D01*
X175429388Y-76774167D01*
X175621789Y-76748838D01*
X175856100Y-76686054D01*
X176080212Y-76593224D01*
X176290289Y-76471936D01*
X176482738Y-76324265D01*
X176654265Y-76152738D01*
X176801936Y-75960289D01*
X176923224Y-75750212D01*
X177016054Y-75526100D01*
X177078838Y-75291789D01*
X177110500Y-75051288D01*
X177110500Y-74808712D01*
X177078838Y-74568211D01*
X177016054Y-74333900D01*
X176923224Y-74109788D01*
X176801936Y-73899711D01*
X176654265Y-73707262D01*
X176654260Y-73707256D01*
X176482743Y-73535739D01*
X176482736Y-73535733D01*
X176290293Y-73388067D01*
X176290292Y-73388066D01*
X176290289Y-73388064D01*
X176080212Y-73266776D01*
X176080205Y-73266773D01*
X175856104Y-73173947D01*
X175621785Y-73111161D01*
X175381289Y-73079500D01*
X175381288Y-73079500D01*
X175138712Y-73079500D01*
X175138711Y-73079500D01*
X174898214Y-73111161D01*
X174663895Y-73173947D01*
X174439794Y-73266773D01*
X174439785Y-73266777D01*
X174229706Y-73388067D01*
X174037263Y-73535733D01*
X174037256Y-73535739D01*
X173865739Y-73707256D01*
X173865733Y-73707263D01*
X173718067Y-73899706D01*
X173596777Y-74109785D01*
X173596773Y-74109794D01*
X173503947Y-74333895D01*
X173441161Y-74568214D01*
X173409500Y-74808711D01*
X73350500Y-74808711D01*
X73318838Y-74568211D01*
X73256054Y-74333900D01*
X73163224Y-74109788D01*
X73041936Y-73899711D01*
X72894265Y-73707262D01*
X72894260Y-73707256D01*
X72722743Y-73535739D01*
X72722736Y-73535733D01*
X72530293Y-73388067D01*
X72530292Y-73388066D01*
X72530289Y-73388064D01*
X72320212Y-73266776D01*
X72320205Y-73266773D01*
X72096104Y-73173947D01*
X71861785Y-73111161D01*
X71621289Y-73079500D01*
X71621288Y-73079500D01*
X71378712Y-73079500D01*
X71378711Y-73079500D01*
X71138214Y-73111161D01*
X70903895Y-73173947D01*
X70679794Y-73266773D01*
X70679785Y-73266777D01*
X70469706Y-73388067D01*
X70277263Y-73535733D01*
X70277256Y-73535739D01*
X70105739Y-73707256D01*
X70105733Y-73707263D01*
X69958067Y-73899706D01*
X69836777Y-74109785D01*
X69836773Y-74109794D01*
X69743947Y-74333895D01*
X69681161Y-74568214D01*
X69649500Y-74808711D01*
X68000500Y-74808711D01*
X68000500Y-71364500D01*
X68020185Y-71297461D01*
X68072989Y-71251706D01*
X68124500Y-71240500D01*
X179335500Y-71240500D01*
X179402539Y-71260185D01*
G37*
%TD.AperFunction*%
%TD*%
M02*
