M48
METRIC
T1C0.400
T2C0.800
T3C1.100
T4C1.300
%
G90
G05
T1
X69.85Y-118.11
X69.85Y-119.38
X82.55Y-85.09
X82.55Y-86.36
X82.55Y-87.63
X157.48Y-90.17
X157.48Y-99.06
X157.48Y-100.33
X157.48Y-101.6
X158.75Y-90.17
X162.56Y-114.3
X162.56Y-115.57
X168.91Y-99.06
X168.91Y-100.33
X171.45Y-123.19
X171.45Y-124.46
T2
X75.953Y-108.375
X81.28Y-113.0
X82.69Y-133.5
X82.88Y-128.0
X83.573Y-108.375
X88.9Y-113.0
X90.19Y-119.5
X90.31Y-133.5
X90.5Y-128.0
X95.19Y-128.0
X95.19Y-133.5
X97.79Y-102.87
X97.81Y-119.5
X102.81Y-128.0
X102.81Y-133.5
X105.41Y-102.87
X157.48Y-123.19
X157.48Y-130.81
T3
X75.5Y-113.92
X75.5Y-116.46
X75.5Y-119.0
X75.5Y-121.54
X75.5Y-124.08
X75.5Y-126.62
X77.47Y-96.52
X77.47Y-99.06
X153.67Y-97.79
X153.67Y-100.33
X166.37Y-78.74
X166.37Y-81.28
X166.37Y-83.82
X166.37Y-86.36
X166.37Y-88.9
X166.37Y-91.44
X166.37Y-93.98
X166.37Y-96.52
X166.37Y-99.06
X166.37Y-101.6
X166.37Y-110.49
X166.37Y-113.03
X166.37Y-115.57
X166.37Y-118.11
X166.37Y-124.46
X166.37Y-127.0
X166.37Y-129.54
T4
X78.74Y-81.28
X78.74Y-86.36
M30
