%TF.GenerationSoftware,KiCad,Pcbnew,9.0.7*%
%TF.CreationDate,2026-01-11T22:14:01+00:00*%
%TF.ProjectId,ChillerHub,4368696c-6c65-4724-9875-622e6b696361,rev?*%
%TF.SameCoordinates,Original*%
%TF.FileFunction,Soldermask,Bot*%
%TF.FilePolarity,Negative*%
%FSLAX46Y46*%
G04 Gerber Fmt 4.6, Leading zero omitted, Abs format (unit mm)*
G04 Created by KiCad (PCBNEW 9.0.7) date 2026-01-11 22:14:01*
%MOMM*%
%LPD*%
G01*
G04 APERTURE LIST*
G04 Aperture macros list*
%AMRoundRect*
0 Rectangle with rounded corners*
0 $1 Rounding radius*
0 $2 $3 $4 $5 $6 $7 $8 $9 X,Y pos of 4 corners*
0 Add a 4 corners polygon primitive as box body*
4,1,4,$2,$3,$4,$5,$6,$7,$8,$9,$2,$3,0*
0 Add four circle primitives for the rounded corners*
1,1,$1+$1,$2,$3*
1,1,$1+$1,$4,$5*
1,1,$1+$1,$6,$7*
1,1,$1+$1,$8,$9*
0 Add four rect primitives between the rounded corners*
20,1,$1+$1,$2,$3,$4,$5,0*
20,1,$1+$1,$4,$5,$6,$7,0*
20,1,$1+$1,$6,$7,$8,$9,0*
20,1,$1+$1,$8,$9,$2,$3,0*%
G04 Aperture macros list end*
%ADD10RoundRect,0.249999X-0.850001X0.850001X-0.850001X-0.850001X0.850001X-0.850001X0.850001X0.850001X0*%
%ADD11C,2.200000*%
%ADD12RoundRect,0.249999X0.850001X-0.850001X0.850001X0.850001X-0.850001X0.850001X-0.850001X-0.850001X0*%
%ADD13C,1.100000*%
%ADD14C,3.200000*%
%ADD15C,1.600000*%
%ADD16RoundRect,0.250000X-1.050000X1.050000X-1.050000X-1.050000X1.050000X-1.050000X1.050000X1.050000X0*%
%ADD17C,2.600000*%
G04 APERTURE END LIST*
D10*
%TO.C,J2_GE1*%
X75500000Y-113920000D03*
D11*
X75500000Y-116460000D03*
X75500000Y-119000000D03*
X75500000Y-121540000D03*
X75500000Y-124080000D03*
X75500000Y-126620000D03*
%TD*%
D12*
%TO.C,J3_ESP1*%
X166370000Y-101600000D03*
D11*
X166370000Y-99060000D03*
X166370000Y-96520000D03*
X166370000Y-93980000D03*
X166370000Y-91440000D03*
X166370000Y-88900000D03*
X166370000Y-86360000D03*
X166370000Y-83820000D03*
X166370000Y-81280000D03*
X166370000Y-78740000D03*
%TD*%
D12*
%TO.C,J4_SHT1*%
X166370000Y-118110000D03*
D11*
X166370000Y-115570000D03*
X166370000Y-113030000D03*
X166370000Y-110490000D03*
%TD*%
D13*
%TO.C,J5_DS18B1*%
X168910000Y-129540000D03*
X168910000Y-127000000D03*
X168910000Y-124460000D03*
D12*
X166370000Y-129540000D03*
D11*
X166370000Y-127000000D03*
X166370000Y-124460000D03*
%TD*%
%TO.C,U2_LM1*%
X153670000Y-100330000D03*
D10*
X153670000Y-97790000D03*
D13*
X151130000Y-100330000D03*
X151130000Y-97790000D03*
%TD*%
D14*
%TO.C,REF\u002A\u002A*%
X175260000Y-74930000D03*
%TD*%
%TO.C,REF\u002A\u002A*%
X94447658Y-83838061D03*
%TD*%
%TO.C,REF\u002A\u002A*%
X144447658Y-83838061D03*
%TD*%
%TO.C,REF\u002A\u002A*%
X144447658Y-112038061D03*
%TD*%
%TO.C,REF\u002A\u002A*%
X94447658Y-112038061D03*
%TD*%
D13*
%TO.C,U1_LM1*%
X80010000Y-99060000D03*
X80010000Y-96520000D03*
D12*
X77470000Y-99060000D03*
D11*
X77470000Y-96520000D03*
%TD*%
D15*
%TO.C,R9*%
X157480000Y-123190000D03*
X157480000Y-130810000D03*
%TD*%
%TO.C,R1*%
X97790000Y-102870000D03*
X105410000Y-102870000D03*
%TD*%
D14*
%TO.C,REF\u002A\u002A*%
X71500000Y-134000000D03*
%TD*%
%TO.C,REF\u002A\u002A*%
X71500000Y-74930000D03*
%TD*%
%TO.C,REF\u002A\u002A*%
X175260000Y-134000000D03*
%TD*%
D15*
%TO.C,R6*%
X82690000Y-133500000D03*
X90310000Y-133500000D03*
%TD*%
%TO.C,R7*%
X95190000Y-133500000D03*
X102810000Y-133500000D03*
%TD*%
%TO.C,R2*%
X90190000Y-119500000D03*
X97810000Y-119500000D03*
%TD*%
%TO.C,R3*%
X88900000Y-113000000D03*
X81280000Y-113000000D03*
%TD*%
%TO.C,R8*%
X102810000Y-128000000D03*
X95190000Y-128000000D03*
%TD*%
D16*
%TO.C,J1_24VDC1*%
X78740000Y-81280000D03*
D17*
X78740000Y-86360000D03*
%TD*%
D15*
%TO.C,R4*%
X83573408Y-108375094D03*
X75953408Y-108375094D03*
%TD*%
%TO.C,R5*%
X82880000Y-128000000D03*
X90500000Y-128000000D03*
%TD*%
M02*
